<svg xmlns="http://www.w3.org/2000/svg" xmlns:xlink="http://www.w3.org/1999/xlink" viewBox="0 0 1148.17 288.74"><defs><style>.cls-1{fill:none;}.cls-2{clip-path:url(#clip-path);}.cls-3{fill:url(#linear-gradient);}.cls-4{clip-path:url(#clip-path-2);}.cls-5{fill:url(#linear-gradient-2);}</style><clipPath id="clip-path" transform="translate(0 0)"><path class="cls-1" d="M607.81,214.14l-22.3,28.52-22.25-28.52h-17.6v72.53h19.67v-43l20.18,25.39,20.23-25.39v43h19.68V214.14Zm53.8,17.65H673.5a8.17,8.17,0,0,1,5.87,2.33,7.3,7.3,0,0,1,0,10.87,8.17,8.17,0,0,1-5.87,2.33H661.62Zm-19.68-17.65v72.53h19.68V264.91h12.95q11.88,0,19.4-7.21a25.8,25.8,0,0,0,0-36.37q-7.48-7.21-19.42-7.21Zm95.79,20.23,6.73,21.24H731Zm-10.87-20.23-27.46,72.53h21.24l5.16-15.53h23.82l5.21,15.53h21.24L748.6,214.14Zm105.6,0v40.41l-31.05-40.41H784.3v72.53H804V246.25l31.15,40.41h17V214.14Zm78.18,0-14.46,28-14.52-28H860.41l25.9,46.63v25.89H906V260.77l25.89-46.63Zm-522,9.23q-11.76,11.3-11.76,27t11.76,27q11.76,11.31,28.65,11.3a41.22,41.22,0,0,0,11.3-1.54,34.75,34.75,0,0,0,14.92-7.89,34.89,34.89,0,0,0,3.64-3.49q.78-1,1.19-1.59l-11.38-12.44-2.17,2.33a23,23,0,0,1-7.08,4.7,24,24,0,0,1-10.42,2.33,20.71,20.71,0,1,1,0-41.42,24.05,24.05,0,0,1,11.68,3.21,29.89,29.89,0,0,1,3.79,2.83,22.66,22.66,0,0,1,2.33,2.22q.51.63.81,1l11.93-12.44-1.16-1.47a22.52,22.52,0,0,0-3.67-3.64,53.94,53.94,0,0,0-6-4.25,34.73,34.73,0,0,0-8.67-3.64,39.75,39.75,0,0,0-11.08-1.52q-16.89,0-28.65,11.3m89.84,41.85a21.75,21.75,0,0,1,0-29.61,20.54,20.54,0,0,1,28.8,0,21.82,21.82,0,0,1,0,29.61,20.48,20.48,0,0,1-28.8,0m-14.24-41.85q-11.76,11.3-11.76,27t11.76,27q11.76,11.31,28.63,11.3t28.63-11.3q11.76-11.3,11.76-27t-11.76-27q-11.76-11.3-28.63-11.3t-28.63,11.3M610.89,180h19.67V107.47H610.89Zm66.25-52.3,6.73,21.24H670.42Zm-10.87-20.23L638.81,180H660l5.16-15.53H689L694.24,180h21.24L688,107.47Zm57.45,0V180h51.79v-17.6H743.39V107.47Zm128.91,0L837.1,157.18l-15.58-49.72H800.28L826.18,180H848l25.9-72.53Zm52.29,20.23,6.73,21.24H898.19ZM894,107.47,866.58,180h21.24L893,164.47H916.8L922,180h21.24l-27.46-72.53Zm57.45,0V180h51.79v-17.6H971.16V107.47Zm104,0V150a14.44,14.44,0,0,1-4,10.32,12.81,12.81,0,0,1-19,0,14.45,14.45,0,0,1-4-10.32V107.47h-19.67V150a30.78,30.78,0,0,0,9.41,22.89q9.41,9.23,23.72,9.23t23.72-9.23a30.78,30.78,0,0,0,9.41-22.89V107.47Zm35.7,0V180h56.95V163.41h-37.27V151h28V135.44h-28V124.06h36.26V107.47ZM385.06,112.1q-7.71,6.7-7.71,15.6a21,21,0,0,0,1.87,9.1,17.16,17.16,0,0,0,4.83,6.27,33.44,33.44,0,0,0,6.52,4,52.88,52.88,0,0,0,7.18,2.76q3.61,1.09,6.57,2a15.59,15.59,0,0,1,4.83,2.43,4.29,4.29,0,0,1,1.87,3.44,7,7,0,0,1-2.6,5.46,9.89,9.89,0,0,1-6.75,2.28,17.13,17.13,0,0,1-5.16-.81,19.89,19.89,0,0,1-4.3-1.85,22.14,22.14,0,0,1-3.26-2.4q-1.54-1.36-2.07-1.87a5.3,5.3,0,0,1-.73-.81l-11.38,11.89,1.11,1.26a23.79,23.79,0,0,0,3.64,3.14,57.71,57.71,0,0,0,5.69,3.64,34.08,34.08,0,0,0,8.19,3.11,41.14,41.14,0,0,0,10.34,1.29q13.15,0,21.09-6.88a21.57,21.57,0,0,0,7.94-16.94,21,21,0,0,0-1.87-9.1,17.14,17.14,0,0,0-4.83-6.27,32.9,32.9,0,0,0-6.58-4,56.55,56.55,0,0,0-7.18-2.76Q408.76,135,405.8,134a16.34,16.34,0,0,1-4.83-2.43,4.22,4.22,0,0,1-1.87-3.41,5.56,5.56,0,0,1,2.23-4.35,8.35,8.35,0,0,1,5.56-1.87,13.5,13.5,0,0,1,6.3,1.62,20.42,20.42,0,0,1,4.1,2.55,19.2,19.2,0,0,1,1.49,1.54l11.43-11.93-1-1a12.07,12.07,0,0,0-2.93-2.65,50.07,50.07,0,0,0-4.93-3,31,31,0,0,0-7.21-2.6,38.83,38.83,0,0,0-9.36-1.09q-12,0-19.75,6.7M466,158.55a21.75,21.75,0,0,1,0-29.61,20.55,20.55,0,0,1,28.8,0,21.82,21.82,0,0,1,0,29.61,20.48,20.48,0,0,1-28.8,0M451.77,116.7Q440,128,440,143.73t11.76,27q11.76,11.31,28.63,11.3T509,170.76q11.76-11.3,11.76-27T509,116.7q-11.76-11.3-28.63-11.31T451.77,116.7m89.06,0q-11.76,11.3-11.76,27t11.76,27q11.76,11.31,28.65,11.3a41.27,41.27,0,0,0,11.3-1.54,34.76,34.76,0,0,0,14.92-7.89,34.82,34.82,0,0,0,3.64-3.49q.78-1,1.19-1.59l-11.38-12.44L587,157.44a23,23,0,0,1-7.08,4.7,24,24,0,0,1-10.42,2.33,20.71,20.71,0,1,1,0-41.42,24,24,0,0,1,11.68,3.21,30,30,0,0,1,3.79,2.83,22.64,22.64,0,0,1,2.33,2.23c.34.42.61.77.81,1L600,119.91l-1.16-1.47a22.46,22.46,0,0,0-3.67-3.64,54,54,0,0,0-6-4.25,34.71,34.71,0,0,0-8.67-3.64,39.72,39.72,0,0,0-11.08-1.52q-16.89,0-28.65,11.31M374.77,0V17.65H395V72.53h19.67V17.65h20.23V0ZM491.24,0V27h-26.4V0H445.17V72.53h19.67v-28h26.4v28h19.67V0ZM527.5,0V72.53h57V55.94H547.17V43.55h28V28h-28V16.59h36.26V0Z"/></clipPath><linearGradient id="linear-gradient" x1="-425.91" y1="1144.37" x2="-424.91" y2="1144.37" gradientTransform="matrix(1000.93, 0, 0, -1000.93, 426647.3, 1145577.15)" gradientUnits="userSpaceOnUse"><stop offset="0" stop-color="#187249"/><stop offset="1" stop-color="#11467c"/></linearGradient><clipPath id="clip-path-2" transform="translate(0 0)"><path class="cls-1" d="M236,.81a89.71,89.71,0,0,0-63.61,26.36L64.89,134.81,45.93,116a35.77,35.77,0,0,1,0-50.74L61,50.24a35.81,35.81,0,0,1,50.58.15l25.08-24.93a71.13,71.13,0,0,0-100.59-.3L21,40.16a71.13,71.13,0,0,0,0,100.91l44,43.67L197.45,52.17a54.57,54.57,0,0,1,77.29,77.06L166.66,237.86,106.79,178l-25,25,84.94,84.89L299.81,154.17A89.91,89.91,0,0,0,236.05.81Z"/></clipPath><linearGradient id="linear-gradient-2" x1="-425.91" y1="1144.37" x2="-424.91" y2="1144.37" gradientTransform="matrix(325.98, 0, 0, -325.98, 138839.73, 373186.24)" xlink:href="#linear-gradient"/></defs><title>Asset 2</title><g id="Layer_2" data-name="Layer 2"><g id="Layer_1-2" data-name="Layer 1"><g class="cls-2"><rect class="cls-3" x="374.77" width="773.4" height="288.74"/></g><g class="cls-4"><rect class="cls-5" y="0.81" width="326.01" height="287.11"/></g></g></g></svg>