<svg width="51" height="51" viewBox="0 0 51 51" fill="none" xmlns="http://www.w3.org/2000/svg">
<path d="M49.5 25.5C49.5 38.783 38.9508 49.5 26 49.5C13.0492 49.5 2.5 38.783 2.5 25.5C2.5 12.217 13.0492 1.5 26 1.5C38.9508 1.5 49.5 12.217 49.5 25.5Z" stroke="#F58F45" stroke-opacity="0.31" stroke-width="3"/>
<mask id="path-2-inside-1_10_1070" fill="white">
<path d="M26 0C30.9445 6.01422e-08 35.778 1.49555 39.8893 4.29752C44.0005 7.0995 47.2048 11.0821 49.097 15.7416C50.9892 20.4011 51.4843 25.5283 50.5196 30.4748C49.555 35.4213 47.174 39.965 43.6777 43.5312C40.1814 47.0975 35.7268 49.5261 30.8773 50.51C26.0277 51.4939 21.0011 50.989 16.4329 49.0589C11.8648 47.1289 7.96029 43.8605 5.21326 39.667C2.46622 35.4736 1 30.5434 1 25.5H4.24397C4.24397 29.889 5.51993 34.1794 7.91052 37.8287C10.3011 41.4781 13.6989 44.3224 17.6743 46.002C21.6497 47.6816 26.0241 48.121 30.2444 47.2648C34.4646 46.4085 38.3412 44.295 41.3838 41.1915C44.4265 38.088 46.4985 34.1339 47.338 29.8293C48.1775 25.5246 47.7466 21.0627 46.1 17.0078C44.4533 12.9529 41.6648 9.48712 38.087 7.04873C34.5092 4.61033 30.3029 3.30884 26 3.30884V0Z"/>
</mask>
<path d="M26 0C30.9445 6.01422e-08 35.778 1.49555 39.8893 4.29752C44.0005 7.0995 47.2048 11.0821 49.097 15.7416C50.9892 20.4011 51.4843 25.5283 50.5196 30.4748C49.555 35.4213 47.174 39.965 43.6777 43.5312C40.1814 47.0975 35.7268 49.5261 30.8773 50.51C26.0277 51.4939 21.0011 50.989 16.4329 49.0589C11.8648 47.1289 7.96029 43.8605 5.21326 39.667C2.46622 35.4736 1 30.5434 1 25.5H4.24397C4.24397 29.889 5.51993 34.1794 7.91052 37.8287C10.3011 41.4781 13.6989 44.3224 17.6743 46.002C21.6497 47.6816 26.0241 48.121 30.2444 47.2648C34.4646 46.4085 38.3412 44.295 41.3838 41.1915C44.4265 38.088 46.4985 34.1339 47.338 29.8293C48.1775 25.5246 47.7466 21.0627 46.1 17.0078C44.4533 12.9529 41.6648 9.48712 38.087 7.04873C34.5092 4.61033 30.3029 3.30884 26 3.30884V0Z" stroke="#F58F45" stroke-width="36" mask="url(#path-2-inside-1_10_1070)"/>
<path d="M24.6504 19.7812V21.2949L19.1523 34H16.1836L21.6816 21.9785H14.6016V19.7812H24.6504ZM29.123 27.5254L26.877 26.9883L27.6875 19.7812H35.6758V22.0566H30.002L29.6504 25.2109C29.8392 25.1003 30.1257 24.9831 30.5098 24.8594C30.8939 24.7292 31.3236 24.6641 31.7988 24.6641C32.4889 24.6641 33.1009 24.7715 33.6348 24.9863C34.1686 25.2012 34.6211 25.5137 34.9922 25.9238C35.3698 26.334 35.6562 26.8353 35.8516 27.4277C36.0469 28.0202 36.1445 28.6908 36.1445 29.4395C36.1445 30.071 36.0469 30.6732 35.8516 31.2461C35.6562 31.8125 35.36 32.3203 34.9629 32.7695C34.5658 33.2122 34.0677 33.5605 33.4688 33.8145C32.8698 34.0684 32.1602 34.1953 31.3398 34.1953C30.7279 34.1953 30.1354 34.1042 29.5625 33.9219C28.9961 33.7396 28.485 33.4694 28.0293 33.1113C27.5801 32.7533 27.2188 32.3203 26.9453 31.8125C26.6784 31.2982 26.5384 30.7122 26.5254 30.0547H29.3184C29.3574 30.4583 29.4616 30.8066 29.6309 31.0996C29.8066 31.3861 30.0378 31.6074 30.3242 31.7637C30.6107 31.9199 30.946 31.998 31.3301 31.998C31.6882 31.998 31.9941 31.9297 32.248 31.793C32.502 31.6562 32.707 31.4674 32.8633 31.2266C33.0195 30.9792 33.1335 30.6927 33.2051 30.3672C33.2832 30.0352 33.3223 29.6771 33.3223 29.293C33.3223 28.9089 33.2767 28.5605 33.1855 28.248C33.0944 27.9355 32.9544 27.6654 32.7656 27.4375C32.5768 27.2096 32.3359 27.0339 32.043 26.9102C31.7565 26.7865 31.4212 26.7246 31.0371 26.7246C30.5163 26.7246 30.1126 26.806 29.8262 26.9688C29.5462 27.1315 29.3118 27.3171 29.123 27.5254Z" fill="#F58F45"/>
<circle cx="2.5" cy="24.5" r="2.5" fill="#F58F45"/>
</svg>
