<svg width="136" height="59" viewBox="0 0 136 59" fill="none" xmlns="http://www.w3.org/2000/svg">
<g clip-path="url(#clip0_7_3092)" filter="url(#filter0_d_7_3092)">
<rect width="123" height="28" transform="translate(7.65842 3) rotate(9.57693)" fill="#926CC2"/>
<path d="M20.3981 15.4845L20.7777 13.2344L31.3793 15.0231L30.9997 17.2733L27.0477 16.6065L25.2494 27.2648L22.5517 26.8096L24.3501 16.1513L20.3981 15.4845ZM34.5263 23.0736L33.5819 28.6707L30.8969 28.2176L33.0748 15.3092L35.6843 15.7494L34.8516 20.6847L34.965 20.7038C35.2799 20.1692 35.7084 19.7812 36.2504 19.5399C36.7932 19.2944 37.4322 19.2337 38.1675 19.3578C38.8399 19.4712 39.4012 19.7172 39.8516 20.0957C40.3069 20.4707 40.6272 20.9547 40.8124 21.5478C41.0024 22.1373 41.0316 22.8099 40.8997 23.5656L39.8597 29.7299L37.1746 29.2768L38.1339 23.5916C38.2387 22.9956 38.1658 22.5058 37.9151 22.122C37.6685 21.739 37.2721 21.5015 36.7259 21.4093C36.3603 21.3476 36.0236 21.3708 35.7159 21.4787C35.4123 21.5874 35.1555 21.7775 34.9455 22.0489C34.7404 22.3168 34.6007 22.6584 34.5263 23.0736ZM46.3529 31.0199C45.357 30.8519 44.5339 30.5056 43.8834 29.9809C43.2378 29.4528 42.7845 28.7843 42.5234 27.9753C42.263 27.1621 42.219 26.245 42.3913 25.2239C42.5593 24.228 42.9 23.3866 43.4135 22.6997C43.927 22.0128 44.5701 21.5184 45.3427 21.2166C46.1195 20.9155 46.9828 20.8451 47.9324 21.0053C48.5711 21.1131 49.1483 21.3164 49.664 21.6151C50.1847 21.9104 50.6165 22.2966 50.9595 22.7737C51.3067 23.2514 51.5438 23.8187 51.6707 24.4753C51.7983 25.1278 51.7926 25.8659 51.6536 26.6895L51.5292 27.4269L43.3543 26.0476L43.635 24.3836L49.2825 25.3365C49.3477 24.9499 49.3215 24.5932 49.2037 24.2666C49.086 23.9399 48.8921 23.6673 48.6221 23.4489C48.3571 23.227 48.0291 23.083 47.6383 23.0171C47.2308 22.9483 46.8534 22.9819 46.5064 23.1178C46.1642 23.2503 45.8783 23.4592 45.6487 23.7445C45.4197 24.0257 45.2709 24.3571 45.2022 24.7388L44.9353 26.3208C44.8544 26.7999 44.8728 27.2286 44.9905 27.6072C45.1123 27.9864 45.3212 28.2982 45.617 28.5426C45.9129 28.787 46.2856 28.9471 46.7352 29.023C47.0336 29.0733 47.3138 29.0774 47.5759 29.0352C47.838 28.993 48.0714 28.9027 48.2763 28.7644C48.4811 28.6261 48.6503 28.4429 48.7839 28.2148L51.2396 28.7977C51.0129 29.3731 50.6665 29.8505 50.2006 30.23C49.7396 30.606 49.1814 30.8662 48.5261 31.0106C47.8757 31.1515 47.1513 31.1546 46.3529 31.0199ZM58.964 32.9532L56.0394 32.4598L62.6735 20.3032L66.1906 20.8966L68.4625 34.5558L65.5379 34.0624L63.9848 23.5582L63.8839 23.5411L58.964 32.9532ZM59.6372 27.8485L66.5453 29.014L66.1858 31.1444L59.2778 29.9789L59.6372 27.8485ZM77.2664 28.3078L76.907 30.4382L71.02 29.4449L71.3794 27.3145L77.2664 28.3078ZM78.1974 36.1983L78.4707 34.5785L86.4374 26.6269L79.9831 25.5379L80.3628 23.2877L90.2458 24.9552L89.9725 26.5751L81.9996 34.5256L88.4601 35.6157L88.0805 37.8658L78.1974 36.1983ZM98.5745 39.8309C97.5955 39.6657 96.7839 39.3149 96.1397 38.7783C95.5005 38.2383 95.0507 37.5617 94.7903 36.7485C94.5306 35.9312 94.4844 35.0266 94.6517 34.035C94.8205 33.0349 95.1612 32.1935 95.674 31.5108C96.1875 30.8239 96.8344 30.3323 97.6147 30.0361C98.4 29.7365 99.2821 29.6692 100.261 29.8344C101.24 29.9996 102.049 30.3522 102.689 30.8922C103.333 31.4287 103.785 32.1057 104.044 32.9231C104.305 33.7362 104.351 34.6429 104.182 35.6429C104.014 36.6346 103.674 37.4739 103.161 38.1608C102.648 38.8435 101.999 39.3347 101.214 39.6344C100.433 39.9306 99.5536 39.9961 98.5745 39.8309ZM98.9381 37.753C99.3835 37.8282 99.7766 37.7649 100.117 37.5631C100.459 37.3571 100.743 37.0463 100.968 36.6306C101.198 36.2156 101.361 35.7266 101.456 35.1635C101.551 34.6005 101.558 34.0852 101.477 33.6178C101.4 33.1511 101.234 32.7644 100.979 32.4577C100.724 32.151 100.374 31.9601 99.9281 31.885C99.4785 31.8091 99.0787 31.8735 98.7287 32.078C98.3829 32.2833 98.0951 32.5934 97.8652 33.0084C97.6395 33.4241 97.4791 33.9135 97.3841 34.4765C97.2891 35.0396 97.28 35.5545 97.3568 36.0212C97.4379 36.4887 97.608 36.8761 97.8673 37.1834C98.1315 37.4873 98.4885 37.6772 98.9381 37.753ZM111.957 31.9374L111.617 33.9544L105.642 32.9462L105.982 30.9293L111.957 31.9374ZM105.716 40.8414L107.468 30.4604C107.586 29.7587 107.821 29.1997 108.172 28.7836C108.527 28.3682 108.964 28.0853 109.482 27.935C110 27.7848 110.564 27.761 111.173 27.8638C111.585 27.9333 111.955 28.0283 112.285 28.1487C112.619 28.2699 112.866 28.3699 113.025 28.4486L112.206 30.3848C112.107 30.3334 111.982 30.2799 111.831 30.2243C111.685 30.1694 111.532 30.1284 111.372 30.1015C110.977 30.0348 110.686 30.0808 110.5 30.2395C110.314 30.3939 110.193 30.635 110.138 30.9628L108.395 41.2934L105.716 40.8414Z" fill="white"/>
</g>
<defs>
<filter id="filter0_d_7_3092" x="1.52588e-05" y="0" width="135.944" height="58.0735" filterUnits="userSpaceOnUse" color-interpolation-filters="sRGB">
<feFlood flood-opacity="0" result="BackgroundImageFix"/>
<feColorMatrix in="SourceAlpha" type="matrix" values="0 0 0 0 0 0 0 0 0 0 0 0 0 0 0 0 0 0 127 0" result="hardAlpha"/>
<feMorphology radius="1" operator="dilate" in="SourceAlpha" result="effect1_dropShadow_7_3092"/>
<feOffset dx="2" dy="2"/>
<feGaussianBlur stdDeviation="2"/>
<feComposite in2="hardAlpha" operator="out"/>
<feColorMatrix type="matrix" values="0 0 0 0 0 0 0 0 0 0 0 0 0 0 0 0 0 0 0.25 0"/>
<feBlend mode="normal" in2="BackgroundImageFix" result="effect1_dropShadow_7_3092"/>
<feBlend mode="normal" in="SourceGraphic" in2="effect1_dropShadow_7_3092" result="shape"/>
</filter>
<clipPath id="clip0_7_3092">
<rect width="123" height="28" fill="white" transform="translate(7.65842 3) rotate(9.57693)"/>
</clipPath>
</defs>
</svg>
