<svg width="35" height="29" viewBox="0 0 35 29" fill="none" xmlns="http://www.w3.org/2000/svg">
<path d="M4.71094 22.5977C4.63281 22.6406 4.55859 22.6758 4.46875 22.6758C4.23438 22.6758 4.04688 22.4844 4.04688 22.2539C4.04688 22.1722 4.0703 22.0929 4.09356 22.0141C4.10035 21.9911 4.10711 21.9682 4.11328 21.9453C4.12891 21.8867 4.46875 20.6172 4.68359 19.8242C4.70703 19.7344 4.72656 19.6484 4.72656 19.5547C4.72679 19.42 4.69461 19.2872 4.63274 19.1675M4.71094 22.5977L7.48047 21M4.71094 22.5977L4.52188 22.2539L4.47927 22.1764C4.51865 22.1815 4.54688 22.2147 4.54688 22.2539C4.54688 22.2559 4.54678 22.2569 4.54682 22.2567C4.54692 22.256 4.54795 22.2465 4.55407 22.2227C4.55824 22.2065 4.56341 22.1885 4.57094 22.163C4.57679 22.1432 4.58472 22.1166 4.5924 22.0888M4.71094 22.5977L4.51264 22.2539L4.46875 22.1778L4.46757 22.1758C4.45743 22.1759 4.44797 22.1769 4.43989 22.1785C4.43173 22.18 4.42673 22.1817 4.4257 22.1821L4.42558 22.1821C4.42558 22.1821 4.42854 22.181 4.43544 22.1777C4.44269 22.1742 4.45211 22.1693 4.46578 22.1618L4.5924 22.0888M7.48047 21C7.6875 20.8789 7.91016 20.8047 8.15234 20.8047C8.27734 20.8047 8.40234 20.8242 8.52344 20.8594M7.48047 21L7.23063 20.5669L7.22936 20.5676C7.4951 20.4124 7.80366 20.3047 8.15234 20.3047C8.32906 20.3047 8.50086 20.3322 8.66232 20.379M7.48047 21L7.22803 20.5684L4.5924 22.0888M8.52344 20.8594C9.81641 21.2305 11.2109 21.4375 12.6523 21.4375C12.7105 21.4375 12.7685 21.4373 12.8263 21.4367C12.7738 21.2719 12.7261 21.1055 12.6835 20.9375M8.52344 20.8594L8.66284 20.3792C8.66267 20.3792 8.66249 20.3791 8.66232 20.379M8.52344 20.8594L8.66137 20.3788C8.66169 20.3789 8.662 20.379 8.66232 20.379M12.6835 20.9375C12.8584 20.9372 13.029 20.9346 13.1978 20.9281C13.0172 20.2574 12.9219 19.5606 12.9219 18.8438C12.9219 13.5391 18.0859 9.24219 24.457 9.24219C24.5152 9.24219 24.5733 9.24269 24.6314 9.24362C24.5971 9.07517 24.5576 8.90804 24.5131 8.74233M12.6835 20.9375C12.5122 20.2625 12.4219 19.5626 12.4219 18.8438C12.4219 13.1809 17.8997 8.74219 24.457 8.74219C24.4757 8.74219 24.4944 8.74224 24.5131 8.74233M12.6835 20.9375C12.6731 20.9375 12.6627 20.9375 12.6523 20.9375C11.2589 20.9375 9.91112 20.7374 8.66232 20.379M24.5131 8.74233C24.6884 8.74323 24.8625 8.74828 25.0333 8.75581C23.8364 3.97878 18.7475 0.390625 12.6484 0.390625C5.66406 0.390625 0 5.10156 0 10.9141C0 14.082 1.70312 16.9375 4.37109 18.8672M24.5131 8.74233C23.3204 4.30241 18.5162 0.890625 12.6484 0.890625C5.85011 0.890625 0.5 5.45991 0.5 10.9141C0.5 13.8923 2.10028 16.6068 4.66205 18.4606M4.37109 18.8672C4.48114 18.9449 4.57088 19.0479 4.63274 19.1675M4.37109 18.8672L4.66412 18.4621C4.66343 18.4616 4.66274 18.4611 4.66205 18.4606M4.37109 18.8672L4.65946 18.4587C4.66033 18.4593 4.66119 18.4599 4.66205 18.4606M4.63274 19.1675L5.07689 18.9379C5.17552 19.1287 5.22686 19.3404 5.22656 19.5551C5.2265 19.7168 5.19226 19.8551 5.1674 19.9504L5.16622 19.955L5.16619 19.955C4.95158 20.7471 4.61192 22.016 4.5964 22.0741L4.59609 22.0753C4.59487 22.0798 4.59364 22.0843 4.5924 22.0888M4.63274 19.1675L5.07689 18.9379C4.97867 18.748 4.83643 18.5843 4.66205 18.4606M31.2762 28.2812L31.2763 28.2813L31.2763 28.2813L31.2762 28.2812ZM31.2762 28.2812V28.2812L31.2734 28.2743L31.2607 28.2428L31.2734 28.2743L31.2762 28.2812ZM31.0622 25.0599L31.0598 25.0616C30.7665 25.2767 30.5654 25.6257 30.5587 26.0228L30.5586 26.0228V26.0312C30.5586 26.1715 30.5878 26.2961 30.6102 26.3812L30.6111 26.3845C30.7009 26.7163 30.8171 27.1468 30.9122 27.5002L31.0333 27.9502L31.039 27.9716L29.0111 26.8049L29.0087 26.8036C28.7826 26.6751 28.5142 26.5781 28.2031 26.5781C28.0482 26.5781 27.8988 26.6011 27.7524 26.6456C26.7237 26.9407 25.6075 27.1055 24.4531 27.1055C18.8149 27.1055 14.4102 23.3213 14.4102 18.8359C14.4102 14.3507 18.8187 10.5664 24.4531 10.5664C30.0913 10.5664 34.4961 14.3506 34.4961 18.8359C34.4961 21.2915 33.1801 23.5264 31.0622 25.0599ZM27.9727 17.9375L27.9738 17.9375C28.4778 17.9364 28.9609 17.736 29.3178 17.3801C29.6747 17.0242 29.8764 16.5417 29.8789 16.0377V16.0352C29.8789 14.9847 29.0252 14.1328 27.9727 14.1328C26.9201 14.1328 26.0664 14.9847 26.0664 16.0352C26.0664 17.0856 26.9201 17.9375 27.9727 17.9375ZM19.0547 7.54688C19.0547 6.33954 18.0715 5.36328 16.8672 5.36328C15.6629 5.36328 14.6797 6.33954 14.6797 7.54688C14.6797 8.75421 15.6629 9.73047 16.8672 9.73047C18.0762 9.73047 19.0547 8.75346 19.0547 7.54688ZM6.24609 7.54688C6.24609 8.75421 7.22927 9.73047 8.43359 9.73047C9.63791 9.73047 10.6211 8.75421 10.6211 7.54688C10.6211 6.34029 9.64258 5.36328 8.43359 5.36328C7.22461 5.36328 6.24609 6.34029 6.24609 7.54688ZM19.0391 16.0352C19.0391 17.0856 19.8927 17.9375 20.9453 17.9375C21.9931 17.9375 22.8516 17.0865 22.8516 16.0352C22.8516 14.9847 21.9979 14.1328 20.9453 14.1328C19.8927 14.1328 19.0391 14.9847 19.0391 16.0352Z" stroke="white"/>
</svg>
