<svg width="36" height="29" viewBox="0 0 36 29" fill="none" xmlns="http://www.w3.org/2000/svg">
<path d="M5.29959 19.9585L5.29961 19.9585L5.30086 19.9538C5.32644 19.8585 5.36209 19.7188 5.36215 19.5551C5.36245 19.3379 5.309 19.1244 5.20708 18.9328C5.10565 18.7421 4.95953 18.5792 4.78208 18.4568C2.14295 16.6004 0.5 13.8861 0.5 10.9141C0.5 5.47163 5.9983 0.890624 13.0113 0.890624C19.0612 0.890624 24.0029 4.30932 25.2301 8.74241C25.2063 8.74226 25.1825 8.74219 25.1586 8.74219C18.4328 8.74219 12.7926 13.1692 12.7926 18.8437C12.7926 19.5627 12.8853 20.2626 13.0612 20.9374C13.0459 20.9375 13.0306 20.9375 13.0153 20.9375C11.5792 20.9375 10.1901 20.737 8.90326 20.378C8.73922 20.3318 8.56505 20.3047 8.3862 20.3047C8.03363 20.3047 7.7205 20.4106 7.44912 20.5647C7.44872 20.5649 7.44832 20.5651 7.44792 20.5653L4.70633 22.1028C4.70861 22.0949 4.7109 22.0868 4.71314 22.0788L4.71346 22.0776C4.72942 22.0194 5.07882 20.7506 5.29959 19.9585ZM31.9671 25.056L31.9647 25.0577C31.6665 25.2703 31.4566 25.6197 31.4496 26.0225L31.4495 26.0225V26.0312C31.4495 26.1734 31.48 26.2993 31.5031 26.3846L31.504 26.388C31.5964 26.7198 31.7159 27.1502 31.8138 27.5036L31.9383 27.9536L31.947 27.9854L29.8308 26.8019L29.8285 26.8006C29.5978 26.6732 29.326 26.5781 29.0122 26.5781C28.8557 26.5781 28.7046 26.6007 28.5563 26.6445C27.4957 26.9403 26.3448 27.1055 25.1546 27.1055C19.335 27.1055 14.8092 23.3096 14.8092 18.8359C14.8092 14.3624 19.3389 10.5664 25.1546 10.5664C30.9742 10.5664 35.5 14.3623 35.5 18.8359C35.5 21.2852 34.1495 23.5198 31.9671 25.056ZM28.7751 17.9375L28.7762 17.9375C29.2864 17.9364 29.7782 17.7394 30.1437 17.3851C30.5096 17.0304 30.7191 16.5463 30.7217 16.0377V16.0352C30.7217 14.9714 29.8365 14.1328 28.7751 14.1328C27.7136 14.1328 26.8285 14.9714 26.8285 16.0352C26.8285 17.0989 27.7136 17.9375 28.7751 17.9375ZM19.587 7.54687C19.587 6.32632 18.5686 5.36328 17.351 5.36328C16.1335 5.36328 15.1151 6.32632 15.1151 7.54687C15.1151 8.76742 16.1335 9.73047 17.351 9.73047C18.5734 9.73047 19.587 8.76668 19.587 7.54687ZM6.43961 7.54687C6.43961 8.76742 7.45798 9.73047 8.67552 9.73047C9.89307 9.73047 10.9114 8.76742 10.9114 7.54687C10.9114 6.32706 9.89785 5.36328 8.67552 5.36328C7.45319 5.36328 6.43961 6.32706 6.43961 7.54687ZM19.5996 16.0352C19.5996 17.0989 20.4847 17.9375 21.5462 17.9375C22.6027 17.9375 23.4927 17.0998 23.4927 16.0352C23.4927 14.9714 22.6076 14.1328 21.5462 14.1328C20.4847 14.1328 19.5996 14.9714 19.5996 16.0352Z" stroke="white"/>
</svg>
