<svg width="32" height="30" viewBox="0 0 32 30" fill="none" xmlns="http://www.w3.org/2000/svg">
<path d="M30.7429 10.4857C29.9397 8.58462 28.7753 6.85747 27.3143 5.39995C25.8568 3.93891 24.1296 2.77453 22.2286 1.97138C20.2536 1.13566 18.1607 0.714233 16 0.714233C13.8393 0.714233 11.7464 1.13566 9.77143 1.97138C7.87039 2.77453 6.14324 3.93891 4.68571 5.39995C3.22467 6.85747 2.0603 8.58462 1.25714 10.4857C0.421429 12.4607 0 14.5535 0 16.7142C0 21.4535 2.08214 25.9178 5.71071 28.9678L5.77143 29.0178C5.97857 29.1892 6.23929 29.2857 6.50714 29.2857H25.4964C25.7643 29.2857 26.025 29.1892 26.2321 29.0178L26.2929 28.9678C29.9179 25.9178 32 21.4535 32 16.7142C32 14.5535 31.575 12.4607 30.7429 10.4857ZM24.9071 26.5714H7.09286C5.71285 25.3271 4.60989 23.8065 3.85556 22.1083C3.10123 20.4102 2.7124 18.5724 2.71429 16.7142C2.71429 13.1642 4.09643 9.82852 6.60714 7.32138C9.11786 4.81066 12.4536 3.42852 16 3.42852C19.55 3.42852 22.8857 4.81066 25.3929 7.32138C27.9036 9.83209 29.2857 13.1678 29.2857 16.7142C29.2857 20.4857 27.6964 24.0535 24.9071 26.5714ZM19.9821 11.7678C19.9284 11.7146 19.8559 11.6848 19.7804 11.6848C19.7048 11.6848 19.6323 11.7146 19.5786 11.7678L16.5607 14.7857C15.8929 14.6071 15.1536 14.7785 14.6286 15.3035C14.4426 15.4891 14.2951 15.7096 14.1944 15.9522C14.0938 16.1949 14.042 16.4551 14.042 16.7178C14.042 16.9805 14.0938 17.2407 14.1944 17.4834C14.2951 17.726 14.4426 17.9465 14.6286 18.1321C14.8142 18.318 15.0346 18.4656 15.2773 18.5662C15.52 18.6669 15.7801 18.7187 16.0429 18.7187C16.3056 18.7187 16.5657 18.6669 16.8084 18.5662C17.0511 18.4656 17.2715 18.318 17.4571 18.1321C17.7059 17.8841 17.8847 17.5749 17.9757 17.2356C18.0666 16.8963 18.0664 16.5391 17.975 16.1999L20.9929 13.1821C21.1036 13.0714 21.1036 12.8892 20.9929 12.7785L19.9821 11.7678ZM15.2143 8.14281H16.7857C16.9429 8.14281 17.0714 8.01423 17.0714 7.85709V4.99995C17.0714 4.8428 16.9429 4.71423 16.7857 4.71423H15.2143C15.0571 4.71423 14.9286 4.8428 14.9286 4.99995V7.85709C14.9286 8.01423 15.0571 8.14281 15.2143 8.14281ZM24.5 15.9285V17.4999C24.5 17.6571 24.6286 17.7857 24.7857 17.7857H27.6429C27.8 17.7857 27.9286 17.6571 27.9286 17.4999V15.9285C27.9286 15.7714 27.8 15.6428 27.6429 15.6428H24.7857C24.6286 15.6428 24.5 15.7714 24.5 15.9285ZM24.9536 8.88566L23.8429 7.77495C23.7892 7.72178 23.7166 7.69195 23.6411 7.69195C23.5655 7.69195 23.493 7.72178 23.4393 7.77495L21.4179 9.79638C21.3647 9.85008 21.3349 9.92259 21.3349 9.99816C21.3349 10.0737 21.3647 10.1462 21.4179 10.1999L22.5286 11.3107C22.6393 11.4214 22.8214 11.4214 22.9321 11.3107L24.9536 9.28923C25.0643 9.17852 25.0643 8.99638 24.9536 8.88566ZM8.575 7.77495C8.5213 7.72178 8.44879 7.69195 8.37321 7.69195C8.29764 7.69195 8.22513 7.72178 8.17143 7.77495L7.06072 8.88566C7.00754 8.93936 6.97772 9.01188 6.97772 9.08745C6.97772 9.16302 7.00754 9.23553 7.06072 9.28923L9.08214 11.3107C9.19286 11.4214 9.375 11.4214 9.48571 11.3107L10.5964 10.1999C10.7071 10.0892 10.7071 9.90709 10.5964 9.79638L8.575 7.77495ZM7.07143 15.6428H4.21429C4.05714 15.6428 3.92857 15.7714 3.92857 15.9285V17.4999C3.92857 17.6571 4.05714 17.7857 4.21429 17.7857H7.07143C7.22857 17.7857 7.35714 17.6571 7.35714 17.4999V15.9285C7.35714 15.7714 7.22857 15.6428 7.07143 15.6428Z" fill="white"/>
</svg>
