<svg width="52" height="49" viewBox="0 0 52 49" fill="none" xmlns="http://www.w3.org/2000/svg">
<path d="M51.3451 28.8492C51.2341 29.2811 51.1445 29.7197 51.0082 30.1435C50.1136 32.9341 47.5892 34.8569 44.6515 34.9759C43.9175 35.0053 43.182 34.9906 42.4466 34.9866C41.3315 34.9799 40.7218 34.3648 40.7204 33.243C40.7177 28.5738 40.7244 23.9046 40.7151 19.2367C40.7137 18.3542 40.703 17.4677 40.6188 16.5906C39.997 10.0882 34.8505 4.56993 28.3842 3.44274C20.534 2.07354 13.0877 6.80692 11.1181 14.49C10.7905 15.7656 10.6608 17.1227 10.6461 18.4438C10.5926 23.3283 10.6247 28.2154 10.6247 33.1012C10.6247 34.3234 10.2409 34.8515 9.03888 34.9919C5.13719 35.4452 1.85859 34.0145 0.45863 30.4738C0.252714 29.951 0.149757 29.3907 0 28.8492C0 26.881 0 24.9128 0 22.9445C0.0320907 22.8335 0.0748783 22.7252 0.0935979 22.6116C0.603038 19.7047 2.7237 17.5052 5.62657 16.9128C6.22292 16.7911 6.83933 16.7657 7.44103 16.6962C7.98925 7.99962 15.3875 0.558593 24.52 0.0344447C28.7118 -0.206236 32.5814 0.80997 36.0272 3.22212C40.7177 6.50473 43.2863 11.0563 43.9014 16.7577C44.1127 16.7577 44.2945 16.7537 44.4764 16.7577C47.4862 16.8419 50.0789 18.7594 50.9975 21.594C51.1405 22.0353 51.2301 22.4939 51.3438 22.9432C51.3451 24.9128 51.3451 26.881 51.3451 28.8492Z" fill="black"/>
<path d="M25.6899 48.2827C25.0213 48.2827 24.3528 48.2947 23.6856 48.2813C21.8898 48.2452 20.5032 46.8613 20.4872 45.103C20.4712 43.3875 21.8444 41.9367 23.6013 41.8846C24.9866 41.8431 26.3745 41.8405 27.7598 41.8859C29.514 41.9421 30.8859 43.4062 30.8578 45.1191C30.8298 46.8613 29.4579 48.2399 27.6942 48.2813C27.0257 48.2947 26.3585 48.2827 25.6899 48.2827Z" fill="black"/>
<path d="M18.7142 44.155C18.7142 44.8075 18.7142 45.3557 18.7142 45.9053C12.9058 46.646 7.55738 42.3057 6.80859 36.8757C7.38623 36.8757 7.96118 36.8757 8.58963 36.8757C9.10308 39.1675 10.2864 41.0649 12.2159 42.4635C14.152 43.8702 16.3529 44.3301 18.7142 44.155Z" fill="black"/>
</svg>
