<svg width="120" height="51" viewBox="0 0 120 51" fill="none" xmlns="http://www.w3.org/2000/svg">
<g clip-path="url(#clip0_7_3096)" filter="url(#filter0_d_7_3096)">
<rect width="107" height="28" transform="translate(6.38931 3) rotate(6.95254)" fill="#926CC2"/>
<path d="M17.8304 25.5507L19.0188 15.8047L21.7218 16.1343L20.5334 25.8803L17.8304 25.5507ZM20.5299 14.714C20.128 14.665 19.7995 14.4897 19.5444 14.1881C19.294 13.8828 19.1917 13.5419 19.2377 13.1655C19.283 12.7932 19.4637 12.4911 19.7796 12.2592C20.1003 12.0236 20.4615 11.9302 20.8634 11.9793C21.2652 12.0283 21.5913 12.2054 21.8417 12.5107C22.0969 12.8122 22.2018 13.1492 22.1564 13.5214C22.1105 13.8979 21.9272 14.2039 21.6065 14.4396C21.2906 14.6715 20.9317 14.763 20.5299 14.714ZM26.0887 20.8396L25.4016 26.474L22.6986 26.1443L23.8871 16.3984L26.4632 16.7125L26.2535 18.432L26.3677 18.4459C26.6525 17.9054 27.0689 17.5011 27.6167 17.2331C28.1651 16.9608 28.8009 16.8688 29.5243 16.957C30.2011 17.0395 30.7731 17.2595 31.2404 17.617C31.7076 17.9745 32.0473 18.4452 32.2595 19.0292C32.4721 19.6089 32.5322 20.2773 32.4399 21.0345L31.6832 27.24L28.9802 26.9103L29.6781 21.1871C29.7551 20.5912 29.6595 20.1073 29.3915 19.7355C29.124 19.3594 28.7195 19.1384 28.178 19.0724C27.8143 19.028 27.4832 19.0671 27.185 19.1895C26.8909 19.3125 26.6473 19.5146 26.4542 19.7959C26.2658 20.0734 26.144 20.4213 26.0887 20.8396ZM44.3213 18.8902L44.0737 20.9206L38.2045 20.2049L38.4521 18.1745L44.3213 18.8902ZM40.0693 16.002L42.7723 16.3316L41.6643 25.4177C41.6339 25.6673 41.6482 25.8665 41.7073 26.0154C41.767 26.16 41.8611 26.2681 41.9898 26.3396C42.1227 26.4116 42.28 26.4587 42.4619 26.4809C42.5888 26.4963 42.717 26.5012 42.8465 26.4956C42.9765 26.4857 43.0761 26.4785 43.1453 26.4741L43.3252 28.5373C43.1847 28.5631 42.9884 28.5885 42.7363 28.6136C42.4838 28.6429 42.1812 28.6425 41.8285 28.6123C41.174 28.5583 40.6135 28.4019 40.1471 28.1433C39.6849 27.8852 39.344 27.5302 39.1243 27.0784C38.9046 26.6266 38.8359 26.0816 38.918 25.4434L40.0693 16.002ZM48.493 23.5716L47.806 29.206L45.103 28.8764L46.6876 15.8818L49.3144 16.2021L48.7086 21.1703L48.8228 21.1842C49.1129 20.6357 49.5232 20.2286 50.0536 19.9627C50.5845 19.6926 51.2201 19.6027 51.9603 19.6929C52.6371 19.7755 53.2092 19.9955 53.6764 20.353C54.1485 20.7067 54.4905 21.1756 54.7026 21.7595C54.9195 22.3398 54.9794 23.0103 54.8823 23.7712L54.1256 29.9767L51.4226 29.6471L52.1205 23.9238C52.198 23.3237 52.1027 22.8377 51.8347 22.4659C51.5709 22.0946 51.164 21.8754 50.6141 21.8083C50.2461 21.7634 49.9109 21.802 49.6084 21.9239C49.3101 22.0464 49.0623 22.248 48.8649 22.5287C48.6723 22.8057 48.5483 23.1534 48.493 23.5716ZM60.6711 30.968C59.6686 30.8458 58.8304 30.5375 58.1566 30.0432C57.4875 29.5452 57.0041 28.8981 56.7062 28.102C56.4089 27.3016 56.3229 26.3874 56.4482 25.3595C56.5705 24.357 56.8723 23.5009 57.3538 22.7912C57.8353 22.0814 58.4551 21.5582 59.2131 21.2213C59.9753 20.8849 60.8344 20.7751 61.7904 20.8916C62.4334 20.97 63.0193 21.1467 63.5481 21.4215C64.0817 21.6926 64.5308 22.0586 64.8953 22.5195C65.264 22.9809 65.5268 23.5367 65.6836 24.1869C65.841 24.8328 65.8691 25.5703 65.768 26.3994L65.6775 27.1418L57.4479 26.1382L57.6522 24.4632L63.3374 25.1564C63.3848 24.7673 63.3423 24.4122 63.2097 24.0912C63.0771 23.7703 62.871 23.5069 62.5913 23.301C62.3163 23.0915 61.9822 22.9628 61.5888 22.9148C61.1784 22.8647 60.8031 22.9156 60.4626 23.0672C60.1269 23.2152 59.8508 23.4369 59.6345 23.7325C59.4187 24.0239 59.2852 24.3618 59.234 24.7462L59.0398 26.3388C58.981 26.821 59.019 27.2485 59.1538 27.6213C59.2929 27.9945 59.5158 28.2965 59.8226 28.5271C60.1293 28.7576 60.509 28.9005 60.9616 28.9557C61.2619 28.9924 61.542 28.9836 61.8019 28.9294C62.0618 28.8752 62.2909 28.7744 62.4892 28.6269C62.6875 28.4793 62.8481 28.2886 62.9711 28.0546L65.4509 28.5244C65.2508 29.1096 64.9267 29.6024 64.4786 30.0028C64.0353 30.3995 63.4896 30.685 62.8416 30.8592C62.1983 31.0298 61.4748 31.066 60.6711 30.968ZM80.7287 20.0329L83.4761 20.3679L82.4471 28.8068C82.3315 29.7543 82.0041 30.5558 81.4648 31.2113C80.9298 31.8672 80.2341 32.3448 79.3776 32.6439C78.5217 32.9387 77.5566 33.0207 76.4821 32.8897C75.4035 32.7581 74.4842 32.4464 73.7242 31.9545C72.9648 31.4583 72.4042 30.8276 72.0425 30.0623C71.6807 29.297 71.5576 28.4405 71.6732 27.493L72.7023 19.0541L75.4497 19.3891L74.4492 27.5933C74.3889 28.0882 74.4431 28.5413 74.6119 28.9525C74.7849 29.3642 75.0568 29.7044 75.4276 29.9728C75.7984 30.2412 76.2482 30.4077 76.7769 30.4722C77.3099 30.5372 77.7865 30.4837 78.2067 30.3117C78.6312 30.1402 78.9747 29.8752 79.2374 29.5165C79.5043 29.1584 79.6679 28.7319 79.7283 28.237L80.7287 20.0329ZM84.1519 33.6382L85.7366 20.6435L88.484 20.9786L87.7853 26.7081L87.9566 26.729L93.3316 21.5697L96.6247 21.9713L91.0929 27.2016L95.0971 34.9729L91.8104 34.5721L88.9023 28.7955L87.3497 30.2804L86.8993 33.9732L84.1519 33.6382Z" fill="white"/>
</g>
<defs>
<filter id="filter0_d_7_3096" x="0" y="0" width="119.603" height="50.7461" filterUnits="userSpaceOnUse" color-interpolation-filters="sRGB">
<feFlood flood-opacity="0" result="BackgroundImageFix"/>
<feColorMatrix in="SourceAlpha" type="matrix" values="0 0 0 0 0 0 0 0 0 0 0 0 0 0 0 0 0 0 127 0" result="hardAlpha"/>
<feMorphology radius="1" operator="dilate" in="SourceAlpha" result="effect1_dropShadow_7_3096"/>
<feOffset dx="2" dy="2"/>
<feGaussianBlur stdDeviation="2"/>
<feComposite in2="hardAlpha" operator="out"/>
<feColorMatrix type="matrix" values="0 0 0 0 0 0 0 0 0 0 0 0 0 0 0 0 0 0 0.25 0"/>
<feBlend mode="normal" in2="BackgroundImageFix" result="effect1_dropShadow_7_3096"/>
<feBlend mode="normal" in="SourceGraphic" in2="effect1_dropShadow_7_3096" result="shape"/>
</filter>
<clipPath id="clip0_7_3096">
<rect width="107" height="28" fill="white" transform="translate(6.38931 3) rotate(6.95254)"/>
</clipPath>
</defs>
</svg>
