<svg width="27" height="7" viewBox="0 0 27 7" fill="none" xmlns="http://www.w3.org/2000/svg">
<path d="M3.875 0.75C2.3625 0.75 1.125 1.9875 1.125 3.5C1.125 5.0125 2.3625 6.25 3.875 6.25C5.3875 6.25 6.625 5.0125 6.625 3.5C6.625 1.9875 5.3875 0.75 3.875 0.75ZM23.125 0.75C21.6125 0.75 20.375 1.9875 20.375 3.5C20.375 5.0125 21.6125 6.25 23.125 6.25C24.6375 6.25 25.875 5.0125 25.875 3.5C25.875 1.9875 24.6375 0.75 23.125 0.75ZM13.5 0.75C11.9875 0.75 10.75 1.9875 10.75 3.5C10.75 5.0125 11.9875 6.25 13.5 6.25C15.0125 6.25 16.25 5.0125 16.25 3.5C16.25 1.9875 15.0125 0.75 13.5 0.75Z" stroke="white" stroke-width="1.5"/>
</svg>
