<svg width="16" height="22" viewBox="0 0 16 22" fill="none" xmlns="http://www.w3.org/2000/svg">
<path d="M8.16 9.86999C8.06 9.85999 7.94 9.85999 7.83 9.86999C6.6822 9.83102 5.59464 9.34683 4.79763 8.51995C4.00062 7.69307 3.55674 6.58844 3.56 5.43999C3.56 2.98999 5.54 0.999989 8 0.999989C8.58241 0.989483 9.16119 1.0938 9.70329 1.30697C10.2454 1.52014 10.7402 1.838 11.1595 2.2424C11.5787 2.6468 11.9142 3.12982 12.1468 3.66388C12.3794 4.19794 12.5045 4.77258 12.515 5.35499C12.5255 5.9374 12.4212 6.51618 12.208 7.05828C11.9948 7.60038 11.677 8.09518 11.2726 8.51444C10.8682 8.9337 10.3852 9.26919 9.85111 9.50178C9.31705 9.73437 8.74241 9.85948 8.16 9.86999ZM3.16 13.56C0.740001 15.18 0.740001 17.82 3.16 19.43C5.91 21.27 10.42 21.27 13.17 19.43C15.59 17.81 15.59 15.17 13.17 13.56C10.43 11.73 5.92 11.73 3.16 13.56Z" stroke="black" stroke-width="1.5" stroke-linecap="round" stroke-linejoin="round"/>
</svg>
