<svg width="33" height="33" viewBox="0 0 33 33" fill="none" xmlns="http://www.w3.org/2000/svg">
<path d="M16.5 30.25C24.0941 30.25 30.25 24.0941 30.25 16.5C30.25 8.90588 24.0941 2.75 16.5 2.75C8.90588 2.75 2.75 8.90588 2.75 16.5C2.75 24.0941 8.90588 30.25 16.5 30.25Z" stroke="white" stroke-width="1.5" stroke-linecap="round" stroke-linejoin="round"/>
<path d="M11 4.125H12.375C9.6938 12.1572 9.6938 20.8428 12.375 28.875H11M20.625 4.125C23.3062 12.1572 23.3062 20.8428 20.625 28.875" stroke="white" stroke-width="1.5" stroke-linecap="round" stroke-linejoin="round"/>
<path d="M4.125 22V20.625C12.1572 23.3062 20.8428 23.3062 28.875 20.625V22M4.125 12.375C12.1572 9.69383 20.8428 9.69383 28.875 12.375" stroke="white" stroke-width="1.5" stroke-linecap="round" stroke-linejoin="round"/>
</svg>
