<svg width="45" height="45" viewBox="0 0 45 45" fill="none" xmlns="http://www.w3.org/2000/svg">
<path d="M36.317 22.0035C38.3186 23.1147 40.3898 23.9704 42.5479 24.6229C42.8501 24.7139 43.1603 24.7887 43.4532 24.9037C44.2728 25.2246 44.7796 25.841 44.8304 26.7075C45.0416 30.307 44.5028 33.7514 42.6054 36.899C41.39 38.9153 39.8309 40.6028 37.8868 41.9292C36.7449 42.7087 35.5843 43.4628 34.4384 44.2384C33.9329 44.5807 33.3901 44.6743 32.783 44.6689C32.073 44.6636 31.363 44.8334 30.6516 44.8347C22.3295 44.8481 14.0073 44.8467 5.68509 44.8347C5.1235 44.8334 4.5472 44.7826 4.00434 44.6475C1.68846 44.0712 0.0545058 42.0094 0.0143924 39.6253C-0.0123498 38.0074 0.00637006 36.3895 0.00637006 34.7729C0.00637006 25.016 0.00369714 15.2605 0.00770848 5.50356C0.00904559 2.86543 1.62561 0.755471 4.11131 0.159119C4.56058 0.0508128 5.03391 0.00936229 5.49655 0.00802518C10.8998 -0.00267172 16.3031 0.00401378 21.7077 2.44587e-06C23.2895 -0.00133467 24.636 0.545544 25.7418 1.67674C28.7262 4.72937 31.7066 7.78601 34.6951 10.836C35.8049 11.9685 36.3197 13.327 36.3157 14.9008C36.3103 17.0856 36.3143 19.2705 36.3143 21.4553C36.317 21.6372 36.317 21.8177 36.317 22.0035ZM22.4284 2.18752C22.1276 2.16746 21.8802 2.13537 21.6315 2.13537C16.279 2.1327 10.9252 2.13002 5.57277 2.13938C5.21041 2.13938 4.83468 2.17682 4.48703 2.27176C3.00284 2.67423 2.13773 3.92576 2.13773 5.64128C2.13639 16.8302 2.13639 28.0205 2.13773 39.2095C2.13773 41.3957 3.47083 42.7167 5.67305 42.7167C13.4109 42.7181 21.1488 42.7181 28.8853 42.7181C29.0257 42.7181 29.1661 42.7181 29.3292 42.7181C29.2945 42.6271 29.2918 42.5857 29.2704 42.571C29.0658 42.4279 28.8586 42.2875 28.65 42.1498C25.8073 40.2792 23.7575 37.7627 22.4792 34.6098C21.5339 32.2779 21.2945 29.843 21.344 27.3546C21.3748 25.7982 21.8334 25.1551 23.3296 24.7245C26.0974 23.9263 28.7195 22.7897 31.1638 21.2654C32.0877 20.6891 32.9782 20.1128 34.0987 20.6731C34.0987 18.392 34.0987 16.1684 34.0987 13.8939C33.8567 13.8939 33.6762 13.8939 33.4957 13.8939C31.6946 13.8939 29.8935 13.9033 28.0924 13.8873C27.6111 13.8832 27.1203 13.8552 26.6523 13.7535C24.16 13.2067 22.4511 11.1061 22.4297 8.55618C22.4137 6.45692 22.4284 4.35631 22.4284 2.18752ZM23.5075 26.8974C23.5075 27.5004 23.5088 28.066 23.5075 28.6316C23.4954 31.7912 24.4648 34.6178 26.3461 37.153C28.1272 39.5518 30.7239 40.9049 33.1079 42.5523C34.1616 41.8489 35.1818 41.159 36.2114 40.4824C39.8309 38.1024 41.9971 34.785 42.5814 30.4875C42.7418 29.3095 42.7071 28.1061 42.7619 26.9067C39.2533 25.936 36.0656 24.4959 33.0999 22.5812C30.1208 24.5093 26.9599 25.9346 23.5075 26.8974ZM32.5544 11.7091C29.8694 8.96267 27.2621 6.2978 24.5705 3.54469C24.5705 5.38188 24.513 7.06664 24.5878 8.74338C24.6574 10.3078 25.8314 11.6061 27.2915 11.6864C29.0003 11.7826 30.7198 11.7091 32.5544 11.7091Z" fill="black"/>
<path d="M16.045 21.3471C18.7286 21.3471 21.4122 21.3471 24.0958 21.3471C24.2455 21.3471 24.3966 21.3404 24.545 21.3524C25.1975 21.4032 25.6348 21.8418 25.6294 22.4328C25.6241 23.0251 25.1868 23.449 24.5276 23.4971C24.4113 23.5052 24.295 23.5012 24.1773 23.5012C18.7433 23.5012 13.3106 23.5012 7.87658 23.5012C7.79368 23.5012 7.70945 23.5025 7.62655 23.4998C6.89514 23.4757 6.42716 23.0653 6.4178 22.4395C6.40844 21.7937 6.88579 21.3524 7.64393 21.3497C10.4438 21.3431 13.2438 21.3471 16.045 21.3471Z" fill="black"/>
<path d="M14.9726 14.941C17.3407 14.941 19.71 14.9397 22.0781 14.9437C22.2933 14.9437 22.514 14.9544 22.7212 15.0079C23.1772 15.1242 23.486 15.5374 23.4954 15.9987C23.5047 16.4747 23.1865 16.9133 22.7092 17.0309C22.5019 17.0818 22.28 17.0924 22.066 17.0924C17.3286 17.0951 12.5926 17.0951 7.85519 17.0938C7.68939 17.0938 7.51958 17.0965 7.35645 17.0711C6.79085 16.9815 6.41378 16.5496 6.41646 16.0107C6.41913 15.4732 6.80021 15.0453 7.36714 14.9611C7.54765 14.9343 7.73352 14.941 7.9167 14.9397C10.2687 14.941 12.6207 14.941 14.9726 14.941Z" fill="black"/>
<path d="M12.8707 27.7531C14.6036 27.7531 16.3365 27.7437 18.0681 27.7584C18.7607 27.7638 19.2153 28.2077 19.222 28.8174C19.2287 29.4271 18.7781 29.863 18.0908 29.9031C17.941 29.9125 17.7913 29.9058 17.6415 29.9058C14.8764 29.9058 12.1099 29.9058 9.34473 29.9058C8.84465 29.9058 8.34457 29.9071 7.84582 29.9058C6.91921 29.9031 6.40843 29.514 6.41779 28.8147C6.42581 28.1315 6.92456 27.7531 7.8231 27.7517C9.50518 27.7517 11.1873 27.7531 12.8707 27.7531Z" fill="black"/>
<path d="M12.8279 34.1593C14.5608 34.1593 16.2937 34.158 18.0266 34.1606C18.5106 34.162 18.9077 34.3304 19.123 34.7971C19.3102 35.2009 19.2821 35.6355 18.9572 35.9029C18.6871 36.1249 18.286 36.2813 17.9357 36.296C16.7884 36.3441 15.6372 36.3147 14.4872 36.3147C12.2717 36.3147 10.0561 36.3161 7.83913 36.312C7.62519 36.312 7.40323 36.3013 7.19732 36.2492C6.71729 36.1275 6.40842 35.701 6.41778 35.217C6.42714 34.7503 6.72665 34.3478 7.18796 34.2288C7.39387 34.1753 7.61583 34.1646 7.82977 34.1633C9.49581 34.1566 11.1619 34.158 12.8279 34.1593Z" fill="black"/>
<path d="M11.7689 8.53619C13.1368 8.53619 14.5047 8.53619 15.8712 8.53619C16.3352 8.53619 16.7283 8.68327 16.9569 9.11516C17.1535 9.4842 17.1307 9.85726 16.8994 10.2049C16.6293 10.6127 16.2135 10.6916 15.7589 10.6916C13.6743 10.6876 11.5897 10.6903 9.50518 10.6903C8.83796 10.6903 8.17075 10.709 7.50487 10.6809C6.84701 10.6528 6.41378 10.2009 6.41646 9.60722C6.41913 9.01488 6.85771 8.587 7.51557 8.5402C7.64794 8.53084 7.78165 8.53619 7.91536 8.53619C9.20166 8.53619 10.4853 8.53619 11.7689 8.53619Z" fill="black"/>
<path d="M32.0769 32.6229C33.1921 31.5064 34.2832 30.3819 35.4184 29.3042C35.6698 29.0662 36.0976 28.8509 36.4119 28.8897C36.7221 28.9271 37.0777 29.2454 37.2596 29.5368C37.4989 29.9179 37.3505 30.3485 37.0336 30.6774C36.5937 31.1334 36.1418 31.5759 35.6938 32.0252C34.7752 32.9451 33.858 33.8677 32.9354 34.7823C32.319 35.3934 31.7667 35.3974 31.157 34.7984C30.5152 34.1673 29.8774 33.5308 29.249 32.8876C28.7368 32.3648 28.7114 31.7444 29.1661 31.2925C29.61 30.8512 30.2438 30.8847 30.7652 31.3874C31.1731 31.7805 31.5729 32.183 31.9767 32.5801C31.986 32.5908 32.0047 32.5921 32.0769 32.6229Z" fill="black"/>
</svg>
