<svg width="181" height="51" viewBox="0 0 181 51" fill="none" xmlns="http://www.w3.org/2000/svg">
<g clip-path="url(#clip0_7_3094)" filter="url(#filter0_d_7_3094)">
<rect width="181" height="28" transform="translate(3 16.0645) rotate(-4.13917)" fill="#926CC2"/>
<path d="M26.024 26.1028C25.9357 25.5922 25.6879 25.2085 25.2806 24.9518C24.8732 24.695 24.338 24.5906 23.6749 24.6386C23.2244 24.6712 22.8486 24.7625 22.5476 24.9124C22.2462 25.0581 22.0207 25.2475 21.8709 25.4805C21.7254 25.7132 21.6628 25.9698 21.6831 26.2503C21.6915 26.4847 21.7551 26.6852 21.874 26.8518C21.9971 27.018 22.1589 27.158 22.3594 27.2716C22.5596 27.3811 22.7885 27.4734 23.046 27.5488C23.3032 27.6199 23.5765 27.677 23.8659 27.7202L25.0593 27.9158C25.638 28.0021 26.1731 28.1343 26.6645 28.3123C27.1559 28.4904 27.5871 28.722 27.9581 29.007C28.3291 29.2921 28.6254 29.638 28.8471 30.045C29.0731 30.4516 29.2079 30.9268 29.2515 31.4705C29.3051 32.2699 29.1512 32.9774 28.7899 33.5932C28.4325 34.2044 27.8872 34.6988 27.154 35.0766C26.4248 35.4498 25.5289 35.6749 24.4664 35.7518C23.4123 35.8281 22.4826 35.733 21.6771 35.4666C20.876 35.1998 20.2336 34.7657 19.75 34.1641C19.2703 33.5579 18.9859 32.7859 18.8966 31.8482L21.5679 31.6548C21.6293 32.0905 21.7812 32.4469 22.0234 32.7242C22.2696 32.9969 22.5851 33.1941 22.9699 33.3158C23.3586 33.4329 23.791 33.4743 24.267 33.4398C24.7345 33.406 25.1355 33.3086 25.4699 33.1477C25.8086 32.9865 26.0648 32.7778 26.2385 32.5217C26.4123 32.2656 26.4878 31.9803 26.465 31.6657C26.4438 31.3725 26.3388 31.1323 26.1501 30.9451C25.9656 30.7577 25.7026 30.6058 25.3609 30.4895C25.0235 30.373 24.6126 30.2745 24.1283 30.1942L22.6807 29.9401C21.5605 29.752 20.661 29.3962 19.9823 28.8728C19.3035 28.3494 18.9314 27.6052 18.8658 26.6401C18.8043 25.8498 18.9647 25.1439 19.347 24.5224C19.7335 23.9005 20.2888 23.3968 21.0129 23.0111C21.7369 22.6255 22.575 22.3982 23.527 22.3293C24.4961 22.2592 25.3539 22.3637 26.1004 22.643C26.8512 22.9219 27.4499 23.3421 27.8964 23.9037C28.3429 24.4653 28.6007 25.1345 28.6697 25.9113L26.024 26.1028ZM37.3052 30.4455L36.8983 24.8224L39.6142 24.6258L40.3229 34.4184L37.7153 34.6071L37.5866 32.8284L37.4846 32.8358C37.3051 33.4255 36.9709 33.9133 36.4818 34.299C35.997 34.6845 35.3869 34.9038 34.6516 34.957C33.9971 35.0044 33.4104 34.8973 32.8916 34.6358C32.3728 34.3742 31.9533 33.9795 31.6331 33.4515C31.3172 32.9232 31.1294 32.2767 31.0698 31.512L30.6186 25.2768L33.3345 25.0803L33.7506 30.8309C33.7967 31.4086 33.9849 31.8543 34.3152 32.1679C34.6455 32.4815 35.0678 32.6197 35.5821 32.5825C35.9094 32.5588 36.21 32.4623 36.484 32.2929C36.7577 32.1193 36.9709 31.8774 37.1237 31.5673C37.2806 31.2569 37.3412 30.8829 37.3052 30.4455ZM42.761 37.9334L41.7866 24.4686L44.4643 24.2748L44.5833 25.9197L44.7044 25.9109C44.8044 25.6388 44.9571 25.3586 45.1627 25.0703C45.3722 24.7774 45.6531 24.5263 46.0054 24.3171C46.3617 24.1034 46.8139 23.9766 47.3622 23.937C48.0763 23.8853 48.7486 24.0246 49.3792 24.355C50.0095 24.6811 50.5323 25.2051 50.9477 25.927C51.3628 26.6446 51.611 27.5645 51.6922 28.6865C51.7712 29.7788 51.6616 30.7139 51.3633 31.4917C51.0689 32.265 50.6339 32.8669 50.0584 33.2973C49.4868 33.7232 48.8291 33.9631 48.0853 34.0169C47.5582 34.055 47.1035 34.0003 46.7211 33.8528C46.343 33.705 46.0275 33.5078 45.7747 33.2612C45.5216 33.0104 45.3235 32.7534 45.1806 32.4903L45.0977 32.4963L45.4769 37.7369L42.761 37.9334ZM44.7995 29.1725C44.8416 29.7548 44.9591 30.2569 45.152 30.6787C45.3449 31.1005 45.6031 31.4215 45.9267 31.6416C46.2499 31.8575 46.6304 31.9496 47.0682 31.9179C47.5102 31.8859 47.8755 31.7377 48.164 31.4733C48.4521 31.2047 48.6592 30.8479 48.785 30.403C48.9149 29.9535 48.9592 29.444 48.918 28.8745C48.8771 28.3092 48.7624 27.8176 48.5741 27.3997C48.3858 26.9818 48.1299 26.6628 47.8063 26.4427C47.4828 26.2226 47.0978 26.1287 46.6516 26.161C46.2095 26.1929 45.844 26.3369 45.5549 26.5928C45.27 26.8484 45.0624 27.1967 44.9319 27.6376C44.8015 28.0786 44.7573 28.5902 44.7995 29.1725ZM54.1219 37.1112L53.1475 23.6465L55.8252 23.4527L55.9442 25.0975L56.0653 25.0888C56.1653 24.8166 56.318 24.5364 56.5236 24.2481C56.7331 23.9552 57.0141 23.7042 57.3663 23.495C57.7226 23.2812 58.1748 23.1545 58.7231 23.1148C59.4372 23.0631 60.1095 23.2025 60.7401 23.5328C61.3704 23.8589 61.8932 24.3829 62.3086 25.1048C62.7237 25.8224 62.9719 26.7423 63.0531 27.8644C63.1321 28.9567 63.0225 29.8917 62.7242 30.6696C62.4298 31.4428 61.9948 32.0447 61.4193 32.4751C60.8477 32.901 60.19 33.1409 59.4462 33.1947C58.9192 33.2329 58.4644 33.1782 58.0821 33.0307C57.7039 32.8829 57.3884 32.6857 57.1356 32.4391C56.8825 32.1882 56.6844 31.9312 56.5415 31.6681L56.4586 31.6741L56.8379 36.9147L54.1219 37.1112ZM56.1604 28.3504C56.2025 28.9326 56.32 29.4347 56.5129 29.8565C56.7058 30.2784 56.964 30.5993 57.2876 30.8195C57.6108 31.0353 57.9913 31.1274 58.4291 31.0957C58.8711 31.0638 59.2364 30.9156 59.5249 30.6512C59.813 30.3825 60.0201 30.0257 60.146 29.5808C60.2758 29.1313 60.3201 28.6218 60.2789 28.0523C60.238 27.487 60.1234 26.9954 59.935 26.5775C59.7467 26.1596 59.4908 25.8406 59.1672 25.6205C58.8437 25.4004 58.4588 25.3065 58.0125 25.3388C57.5705 25.3708 57.2049 25.5147 56.9158 25.7706C56.6309 26.0262 56.4233 26.3745 56.2928 26.8155C56.1624 27.2564 56.1183 27.7681 56.1604 28.3504ZM69.6555 32.4879C68.6652 32.5596 67.7935 32.4112 67.0405 32.0427C66.2915 31.6697 65.694 31.119 65.2483 30.3908C64.8022 29.6583 64.5429 28.7905 64.4703 27.7874C64.3971 26.7759 64.5286 25.8777 64.8649 25.0928C65.2008 24.3037 65.7127 23.6728 66.4006 23.2001C67.0924 22.7227 67.9334 22.4483 68.9237 22.3766C69.914 22.3049 70.7837 22.4556 71.5328 22.8287C72.2858 23.1971 72.8853 23.7476 73.3314 24.4801C73.7771 25.2084 74.0366 26.0783 74.1098 27.0898C74.1824 28.0929 74.0507 28.989 73.7148 29.7781C73.3785 30.5629 72.8645 31.194 72.1727 31.6713C71.4848 32.1441 70.6458 32.4163 69.6555 32.4879ZM69.516 30.3831C69.9665 30.3505 70.3334 30.1958 70.6167 29.919C70.8997 29.6378 71.1016 29.2686 71.2223 28.8113C71.3473 28.3536 71.3891 27.84 71.3479 27.2705C71.3067 26.701 71.1913 26.1987 71.0018 25.7638C70.8165 25.3286 70.5635 24.9923 70.243 24.7549C69.9225 24.5175 69.5369 24.4151 69.0864 24.4477C68.6316 24.4806 68.2585 24.6379 67.967 24.9196C67.6797 25.201 67.4736 25.5706 67.3487 26.0282C67.228 26.4856 67.1882 26.999 67.2294 27.5685C67.2706 28.1381 67.3839 28.6404 67.5692 29.0756C67.7588 29.5105 68.0159 29.8465 68.3407 30.0837C68.6694 30.3162 69.0612 30.416 69.516 30.3831ZM76.2274 31.8201L75.5187 22.0275L78.1517 21.837L78.2754 23.5456L78.3774 23.5382C78.5119 22.9175 78.7783 22.4368 79.1767 22.096C79.5747 21.7511 80.0478 21.5587 80.5961 21.5191C80.7321 21.5092 80.8794 21.5071 81.0379 21.5127C81.1963 21.5184 81.3362 21.5317 81.4573 21.5529L81.6317 23.9628C81.5015 23.9337 81.3226 23.9125 81.0952 23.8991C80.8678 23.8856 80.6606 23.8856 80.4735 23.8992C80.074 23.9281 79.7233 24.0411 79.4214 24.2381C79.1234 24.4305 78.8941 24.6864 78.7335 25.0056C78.5772 25.3246 78.5134 25.6838 78.5424 26.0833L78.9433 31.6235L76.2274 31.8201ZM88.5643 21.0834L88.712 23.1235L82.8147 23.5503L82.6671 21.5102L88.5643 21.0834ZM83.8361 19.0672L86.552 18.8706L87.2127 28.0001C87.2309 28.2509 87.2833 28.4437 87.3699 28.5784C87.4563 28.7088 87.5695 28.7968 87.7095 28.8422C87.8537 28.8873 88.0172 28.9032 88.2 28.89C88.3275 28.8808 88.4542 28.8609 88.5802 28.8305C88.7059 28.7957 88.8022 28.7695 88.8693 28.7519L89.4427 30.7419C89.3098 30.7943 89.1221 30.857 88.8796 30.9301C88.6374 31.0074 88.3403 31.0652 87.9885 31.1035C87.3358 31.1764 86.7557 31.1308 86.2482 30.9667C85.745 30.8023 85.3421 30.5196 85.0397 30.1185C84.7372 29.7174 84.5649 29.1958 84.5227 28.5537L83.8361 19.0672ZM101.658 20.6293C101.57 20.1187 101.322 19.735 100.915 19.4783C100.507 19.2215 99.9722 19.1171 99.3092 19.1651C98.8586 19.1977 98.4829 19.289 98.1818 19.4389C97.8805 19.5846 97.6549 19.774 97.5051 20.007C97.3596 20.2397 97.297 20.4963 97.3173 20.7768C97.3257 21.0112 97.3894 21.2117 97.5083 21.3782C97.6314 21.5445 97.7932 21.6845 97.9937 21.7981C98.1938 21.9076 98.4227 21.9999 98.6802 22.0753C98.9375 22.1464 99.2108 22.2035 99.5001 22.2467L100.694 22.4423C101.272 22.5286 101.807 22.6608 102.299 22.8388C102.79 23.0169 103.221 23.2485 103.592 23.5335C103.963 23.8185 104.26 24.1645 104.481 24.5715C104.707 24.9781 104.842 25.4533 104.886 25.997C104.939 26.7964 104.785 27.5039 104.424 28.1197C104.067 28.7309 103.521 29.2253 102.788 29.6031C102.059 29.9763 101.163 30.2014 100.101 30.2783C99.0465 30.3545 98.1168 30.2595 97.3114 29.9931C96.5102 29.7263 95.8678 29.2922 95.3842 28.6905C94.9045 28.0844 94.6201 27.3124 94.5309 26.3747L97.2021 26.1813C97.2636 26.617 97.4154 26.9734 97.6577 27.2507C97.9038 27.5234 98.2193 27.7206 98.6041 27.8423C98.9928 27.9594 99.4252 28.0008 99.9012 27.9663C100.369 27.9325 100.77 27.8351 101.104 27.6742C101.443 27.513 101.699 27.3043 101.873 27.0482C102.047 26.7921 102.122 26.5068 102.099 26.1922C102.078 25.899 101.973 25.6588 101.784 25.4716C101.6 25.2842 101.337 25.1323 100.995 25.016C100.658 24.8995 100.247 24.801 99.7625 24.7207L98.3149 24.4666C97.1948 24.2785 96.2953 23.9227 95.6165 23.3993C94.9378 22.8759 94.5656 22.1317 94.5 21.1666C94.4386 20.3763 94.599 19.6704 94.9813 19.0489C95.3678 18.427 95.9231 17.9233 96.6471 17.5376C97.3712 17.152 98.2092 16.9247 99.1613 16.8558C100.13 16.7857 100.988 16.8902 101.735 17.1695C102.485 17.4484 103.084 17.8686 103.531 18.4302C103.977 18.9917 104.235 19.661 104.304 20.4378L101.658 20.6293ZM111.438 29.4642C110.431 29.5371 109.549 29.3958 108.793 29.0404C108.04 28.6804 107.441 28.1384 106.996 27.4144C106.55 26.6862 106.29 25.8057 106.215 24.7729C106.142 23.7655 106.274 22.8673 106.61 22.0783C106.946 21.2892 107.453 20.6564 108.132 20.18C108.815 19.7033 109.637 19.4302 110.598 19.3607C111.244 19.314 111.853 19.3746 112.425 19.5425C113.001 19.7059 113.512 19.9787 113.958 20.3608C114.409 20.7427 114.773 21.2375 115.052 21.8454C115.331 22.449 115.501 23.1673 115.561 24.0004L115.615 24.7463L107.346 25.3447L107.224 23.6616L112.936 23.2482C112.908 22.8572 112.798 22.517 112.606 22.2275C112.414 21.938 112.161 21.7192 111.847 21.571C111.537 21.4183 111.185 21.3562 110.789 21.3848C110.377 21.4147 110.018 21.5368 109.713 21.7511C109.412 21.9609 109.184 22.2316 109.029 22.5633C108.873 22.8907 108.807 23.248 108.831 23.6351L108.947 25.2353C108.982 25.7198 109.101 26.132 109.305 26.4718C109.514 26.8114 109.79 27.0648 110.136 27.2321C110.481 27.3993 110.881 27.4665 111.336 27.4336C111.638 27.4118 111.911 27.3493 112.156 27.2461C112.4 27.143 112.606 26.9999 112.772 26.817C112.938 26.6341 113.059 26.416 113.135 26.1627L115.658 26.1467C115.575 26.7594 115.351 27.3054 114.989 27.7845C114.63 28.2591 114.149 28.6442 113.547 28.9399C112.949 29.231 112.246 29.4058 111.438 29.4642ZM117.691 28.8194L116.983 19.0268L119.616 18.8363L119.739 20.5449L119.841 20.5375C119.976 19.9168 120.242 19.4361 120.64 19.0954C121.039 18.7504 121.512 18.5581 122.06 18.5184C122.196 18.5086 122.343 18.5065 122.502 18.5121C122.66 18.5177 122.8 18.5311 122.921 18.5522L123.096 20.9621C122.965 20.9331 122.786 20.9118 122.559 20.8984C122.332 20.8849 122.124 20.885 121.937 20.8985C121.538 20.9274 121.187 21.0404 120.885 21.2374C120.587 21.4299 120.358 21.6857 120.197 22.005C120.041 22.3239 119.977 22.6831 120.006 23.0827L120.407 28.6229L117.691 28.8194ZM133.756 17.813L131.041 27.8533L127.981 28.0748L123.849 18.5299L126.718 18.3223L129.259 25.1817L129.361 25.1743L130.881 18.021L133.756 17.813ZM135.855 27.505L135.146 17.7124L137.862 17.5158L138.571 27.3084L135.855 27.505ZM136.419 16.3513C136.015 16.3806 135.659 16.2717 135.351 16.0249C135.046 15.7735 134.88 15.4586 134.853 15.0804C134.826 14.7063 134.945 14.3751 135.21 14.0868C135.48 13.7938 135.816 13.6328 136.22 13.6035C136.624 13.5743 136.978 13.6854 137.282 13.9368C137.591 14.1837 137.759 14.4941 137.786 14.8681C137.813 15.2464 137.692 15.582 137.423 15.8749C137.157 16.1633 136.823 16.3221 136.419 16.3513ZM145.185 27.022C144.181 27.0946 143.303 26.9446 142.55 26.5718C141.801 26.1945 141.205 25.6395 140.763 24.9067C140.326 24.1736 140.071 23.3119 139.999 22.3215C139.927 21.3185 140.056 20.4247 140.388 19.6402C140.724 18.8511 141.236 18.218 141.924 17.741C142.611 17.2598 143.45 16.9833 144.44 16.9116C145.294 16.8498 146.054 16.9508 146.718 17.2146C147.382 17.4784 147.922 17.8773 148.336 18.4113C148.751 18.9453 149.005 19.5891 149.098 20.3429L146.535 20.5284C146.427 20.0448 146.207 19.6655 145.876 19.3905C145.548 19.1108 145.135 18.989 144.638 19.025C144.217 19.0555 143.858 19.1968 143.56 19.4491C143.266 19.6968 143.047 20.0437 142.905 20.4899C142.762 20.936 142.712 21.4672 142.757 22.0835C142.802 22.7083 142.926 23.2334 143.127 23.6589C143.333 24.0841 143.602 24.4 143.933 24.6068C144.264 24.8135 144.64 24.9017 145.061 24.8712C145.371 24.8488 145.645 24.7649 145.882 24.6195C146.124 24.4739 146.317 24.2741 146.461 24.0201C146.608 23.7616 146.695 23.4584 146.722 23.1104L149.284 22.9249C149.296 23.6761 149.14 24.3496 148.815 24.9456C148.495 25.537 148.028 26.0152 147.413 26.3801C146.799 26.745 146.056 26.959 145.185 27.022ZM155.76 26.2567C154.752 26.3296 153.871 26.1884 153.114 25.8329C152.362 25.473 151.763 24.931 151.317 24.207C150.872 23.4787 150.611 22.5982 150.537 21.5654C150.464 20.5581 150.595 19.6599 150.931 18.8708C151.267 18.0817 151.775 17.449 152.454 16.9726C153.137 16.4959 153.959 16.2228 154.92 16.1532C155.566 16.1065 156.175 16.1671 156.746 16.3351C157.322 16.4985 157.833 16.7712 158.28 17.1534C158.73 17.5352 159.095 18.03 159.374 18.6379C159.653 19.2415 159.822 19.9599 159.882 20.7929L159.936 21.5388L151.668 22.1372L151.546 20.4541L157.258 20.0408C157.23 19.6497 157.12 19.3095 156.928 19.02C156.736 18.7306 156.483 18.5117 156.169 18.3636C155.859 18.2108 155.506 18.1488 155.111 18.1774C154.699 18.2072 154.34 18.3293 154.035 18.5436C153.734 18.7534 153.506 19.0241 153.35 19.3558C153.195 19.6833 153.129 20.0405 153.152 20.4276L153.268 22.0278C153.303 22.5123 153.423 22.9245 153.627 23.2644C153.835 23.6039 154.112 23.8573 154.457 24.0246C154.803 24.1919 155.203 24.2591 155.658 24.2261C155.959 24.2043 156.233 24.1418 156.477 24.0387C156.722 23.9355 156.927 23.7925 157.093 23.6095C157.26 23.4266 157.381 23.2085 157.456 22.9552L159.98 22.9392C159.896 23.552 159.673 24.0979 159.31 24.577C158.952 25.0516 158.471 25.4367 157.869 25.7324C157.27 26.0235 156.567 26.1983 155.76 26.2567ZM169.654 18.0222L167.179 18.3551C167.121 18.1457 167.016 17.961 166.863 17.8012C166.71 17.637 166.515 17.5123 166.278 17.4269C166.045 17.3369 165.772 17.3033 165.457 17.3261C165.036 17.3566 164.688 17.4715 164.412 17.6709C164.135 17.8661 164.008 18.1103 164.029 18.4036C164.046 18.6373 164.154 18.8282 164.352 18.9762C164.551 19.1242 164.881 19.2306 165.343 19.2954L167.141 19.5242C168.108 19.6508 168.84 19.9139 169.339 20.3136C169.838 20.7133 170.113 21.2659 170.164 21.9715C170.211 22.6133 170.062 23.1901 169.719 23.702C169.38 24.2136 168.893 24.6291 168.258 24.9485C167.627 25.2633 166.887 25.4515 166.037 25.513C164.74 25.6068 163.688 25.4117 162.88 24.9276C162.075 24.4389 161.573 23.7318 161.374 22.8063L164.035 22.4727C164.144 22.8621 164.362 23.1498 164.687 23.3356C165.012 23.5171 165.417 23.5904 165.901 23.5553C166.378 23.5209 166.753 23.4018 167.029 23.1981C167.309 22.9899 167.44 22.739 167.423 22.4454C167.401 22.1992 167.283 22.0048 167.067 21.8623C166.851 21.7156 166.528 21.6151 166.097 21.5609L164.377 21.3457C163.406 21.2236 162.67 20.9436 162.169 20.5057C161.671 20.0674 161.396 19.4828 161.343 18.7518C161.298 18.1227 161.429 17.5685 161.736 17.0891C162.047 16.6094 162.504 16.2239 163.107 15.9325C163.714 15.6407 164.436 15.4646 165.273 15.404C166.51 15.3145 167.502 15.5054 168.25 15.9768C169.002 16.4479 169.47 17.1297 169.654 18.0222Z" fill="white"/>
</g>
<defs>
<filter id="filter0_d_7_3094" x="0" y="0" width="192.549" height="50.9915" filterUnits="userSpaceOnUse" color-interpolation-filters="sRGB">
<feFlood flood-opacity="0" result="BackgroundImageFix"/>
<feColorMatrix in="SourceAlpha" type="matrix" values="0 0 0 0 0 0 0 0 0 0 0 0 0 0 0 0 0 0 127 0" result="hardAlpha"/>
<feMorphology radius="1" operator="dilate" in="SourceAlpha" result="effect1_dropShadow_7_3094"/>
<feOffset dx="2" dy="2"/>
<feGaussianBlur stdDeviation="2"/>
<feComposite in2="hardAlpha" operator="out"/>
<feColorMatrix type="matrix" values="0 0 0 0 0 0 0 0 0 0 0 0 0 0 0 0 0 0 0.25 0"/>
<feBlend mode="normal" in2="BackgroundImageFix" result="effect1_dropShadow_7_3094"/>
<feBlend mode="normal" in="SourceGraphic" in2="effect1_dropShadow_7_3094" result="shape"/>
</filter>
<clipPath id="clip0_7_3094">
<rect width="181" height="28" fill="white" transform="translate(3 16.0645) rotate(-4.13917)"/>
</clipPath>
</defs>
</svg>
