<svg width="24" height="24" viewBox="0 0 24 24" fill="none" xmlns="http://www.w3.org/2000/svg">
<path d="M12.33 12.15L9.86 14.62C9.53436 14.9447 9.27599 15.3305 9.09971 15.7552C8.92342 16.1799 8.83267 16.6352 8.83267 17.095C8.83267 17.5549 8.92342 18.0102 9.09971 18.4349C9.27599 18.8596 9.53436 19.2454 9.86 19.57C10.1847 19.8957 10.5704 20.154 10.9951 20.3303C11.4198 20.5066 11.8752 20.5974 12.335 20.5974C12.7948 20.5974 13.2502 20.5066 13.6749 20.3303C14.0996 20.154 14.4853 19.8957 14.81 19.57L18.7 15.68C20.0112 14.3663 20.7476 12.5861 20.7476 10.73C20.7476 8.87396 20.0112 7.09372 18.7 5.78003C17.3863 4.46884 15.6061 3.73242 13.75 3.73242C11.8939 3.73242 10.1137 4.46884 8.8 5.78003L4.56 10.02C2.22 12.36 2.22 16.16 4.56 18.51" stroke="black" stroke-width="1.5" stroke-linecap="round" stroke-linejoin="round"/>
</svg>
