<svg width="32" height="28" viewBox="0 0 32 28" fill="none" xmlns="http://www.w3.org/2000/svg">
<path d="M30.6786 5.8429C30.1999 4.73446 29.5096 3.73 28.6464 2.88576C27.7826 2.03899 26.7642 1.36608 25.6464 0.903614C24.4874 0.422161 23.2443 0.175725 21.9893 0.178614C20.2286 0.178614 18.5107 0.660757 17.0179 1.57147C16.6607 1.78933 16.3214 2.02861 16 2.28933C15.6786 2.02861 15.3393 1.78933 14.9821 1.57147C13.4893 0.660757 11.7714 0.178614 10.0107 0.178614C8.74286 0.178614 7.51429 0.421471 6.35357 0.903614C5.23214 1.3679 4.22143 2.03576 3.35357 2.88576C2.48927 3.72905 1.79885 4.73375 1.32143 5.8429C0.825 6.99647 0.571428 8.22147 0.571428 9.48219C0.571428 10.6715 0.814286 11.9108 1.29643 13.1715C1.7 14.225 2.27857 15.3179 3.01786 16.4215C4.18929 18.1679 5.8 19.9893 7.8 21.8358C11.1143 24.8965 14.3964 27.0108 14.5357 27.0965L15.3821 27.6393C15.7571 27.8786 16.2393 27.8786 16.6143 27.6393L17.4607 27.0965C17.6 27.0072 20.8786 24.8965 24.1964 21.8358C26.1964 19.9893 27.8071 18.1679 28.9786 16.4215C29.7179 15.3179 30.3 14.225 30.7 13.1715C31.1821 11.9108 31.425 10.6715 31.425 9.48219C31.4286 8.22147 31.175 6.99647 30.6786 5.8429ZM16 24.8143C16 24.8143 3.28571 16.6679 3.28571 9.48219C3.28571 5.8429 6.29643 2.8929 10.0107 2.8929C12.6214 2.8929 14.8857 4.35004 16 6.47861C17.1143 4.35004 19.3786 2.8929 21.9893 2.8929C25.7036 2.8929 28.7143 5.8429 28.7143 9.48219C28.7143 16.6679 16 24.8143 16 24.8143Z" fill="white"/>
</svg>
