<svg width="165" height="195" viewBox="0 0 165 195" fill="none" xmlns="http://www.w3.org/2000/svg">
<rect x="0.5" y="164.5" width="154" height="30" rx="7.5" stroke="white"/>
<path d="M38.7663 176.783C38.7322 176.439 38.5859 176.172 38.3274 175.982C38.0689 175.791 37.718 175.696 37.2749 175.696C36.9737 175.696 36.7195 175.739 36.5121 175.824C36.3047 175.906 36.1456 176.021 36.0348 176.169C35.9268 176.317 35.8729 176.484 35.8729 176.672C35.8672 176.828 35.8999 176.964 35.9709 177.081C36.0447 177.197 36.1456 177.298 36.2734 177.384C36.4013 177.466 36.549 177.538 36.7166 177.601C36.8842 177.661 37.0632 177.712 37.2536 177.754L38.0376 177.942C38.4183 178.027 38.7678 178.141 39.0859 178.283C39.4041 178.425 39.6797 178.599 39.9126 178.807C40.1456 179.014 40.326 179.259 40.4538 179.54C40.5845 179.821 40.6513 180.143 40.6541 180.507C40.6513 181.041 40.5149 181.504 40.245 181.896C39.978 182.286 39.5916 182.588 39.0859 182.804C38.5831 183.017 37.9766 183.124 37.2663 183.124C36.5618 183.124 35.9482 183.016 35.4254 182.8C34.9055 182.584 34.4993 182.264 34.2067 181.841C33.9169 181.415 33.7649 180.888 33.7507 180.26H35.5362C35.5561 180.553 35.6399 180.797 35.7876 180.993C35.9382 181.186 36.1385 181.332 36.3885 181.432C36.6413 181.528 36.9268 181.577 37.245 181.577C37.5575 181.577 37.8288 181.531 38.0589 181.44C38.2919 181.349 38.4723 181.223 38.6001 181.061C38.728 180.899 38.7919 180.713 38.7919 180.503C38.7919 180.307 38.7337 180.142 38.6172 180.009C38.5036 179.875 38.3359 179.761 38.1143 179.668C37.8956 179.574 37.6271 179.489 37.3089 179.412L36.3587 179.173C35.6229 178.994 35.0419 178.714 34.6158 178.334C34.1896 177.953 33.978 177.44 33.9808 176.795C33.978 176.267 34.1186 175.805 34.4027 175.411C34.6896 175.016 35.0831 174.707 35.5831 174.486C36.0831 174.264 36.6513 174.153 37.2876 174.153C37.9354 174.153 38.5007 174.264 38.9837 174.486C39.4695 174.707 39.8473 175.016 40.1172 175.411C40.3871 175.805 40.5263 176.263 40.5348 176.783H38.7663ZM45.3427 176.455V177.818H41.4009V176.455H45.3427ZM42.2958 174.886H44.1112V180.989C44.1112 181.156 44.1367 181.287 44.1879 181.381C44.239 181.472 44.31 181.536 44.4009 181.572C44.4947 181.609 44.6026 181.628 44.7248 181.628C44.81 181.628 44.8952 181.621 44.9805 181.607C45.0657 181.589 45.131 181.577 45.1765 181.568L45.462 182.919C45.3711 182.947 45.2433 182.98 45.0785 183.017C44.9137 183.057 44.7134 183.081 44.4776 183.089C44.0401 183.107 43.6566 183.048 43.3271 182.915C43.0004 182.781 42.7461 182.574 42.5643 182.293C42.3825 182.011 42.293 181.656 42.2958 181.227V174.886ZM48.3917 183.124C47.9741 183.124 47.6019 183.051 47.2752 182.906C46.9485 182.759 46.69 182.541 46.4996 182.254C46.3121 181.964 46.2184 181.604 46.2184 181.172C46.2184 180.808 46.2852 180.503 46.4187 180.256C46.5522 180.009 46.734 179.81 46.9641 179.659C47.1942 179.509 47.4556 179.395 47.7482 179.318C48.0437 179.241 48.3533 179.188 48.6772 179.156C49.0579 179.116 49.3647 179.08 49.5977 179.045C49.8306 179.009 49.9996 178.955 50.1048 178.884C50.2099 178.812 50.2624 178.707 50.2624 178.568V178.543C50.2624 178.273 50.1772 178.064 50.0067 177.916C49.8391 177.768 49.6005 177.695 49.2908 177.695C48.9641 177.695 48.7042 177.767 48.511 177.912C48.3178 178.054 48.19 178.233 48.1275 178.449L46.4485 178.312C46.5337 177.915 46.7013 177.571 46.9513 177.281C47.2013 176.989 47.5238 176.764 47.9187 176.608C48.3164 176.449 48.7766 176.369 49.2994 176.369C49.663 176.369 50.011 176.412 50.3434 176.497C50.6786 176.582 50.9755 176.714 51.234 176.893C51.4954 177.072 51.7013 177.303 51.8519 177.584C52.0025 177.862 52.0778 178.196 52.0778 178.585V183H50.3562V182.092H50.305C50.1999 182.297 50.0593 182.477 49.8832 182.634C49.707 182.787 49.4954 182.908 49.2482 182.996C49.0011 183.081 48.7156 183.124 48.3917 183.124ZM48.9116 181.871C49.1786 181.871 49.4144 181.818 49.619 181.713C49.8235 181.605 49.984 181.46 50.1005 181.278C50.217 181.097 50.2752 180.891 50.2752 180.661V179.966C50.2184 180.003 50.1403 180.037 50.0408 180.068C49.9442 180.097 49.8349 180.124 49.7127 180.149C49.5906 180.172 49.4684 180.193 49.3462 180.213C49.2241 180.23 49.1133 180.246 49.0138 180.26C48.8008 180.291 48.6147 180.341 48.4556 180.409C48.2965 180.477 48.1729 180.57 48.0849 180.686C47.9968 180.8 47.9528 180.942 47.9528 181.112C47.9528 181.359 48.0423 181.548 48.2212 181.679C48.4031 181.807 48.6332 181.871 48.9116 181.871ZM53.4862 183V176.455H55.2461V177.597H55.3143C55.4336 177.19 55.6339 176.884 55.9151 176.676C56.1964 176.466 56.5202 176.361 56.8867 176.361C56.9776 176.361 57.0756 176.366 57.1808 176.378C57.2859 176.389 57.3782 176.405 57.4577 176.425V178.036C57.3725 178.01 57.2546 177.987 57.104 177.967C56.9535 177.947 56.8157 177.938 56.6907 177.938C56.4237 177.938 56.185 177.996 55.9748 178.112C55.7674 178.226 55.6026 178.385 55.4805 178.589C55.3612 178.794 55.3015 179.03 55.3015 179.297V183H53.4862ZM62.206 176.455V177.818H58.2642V176.455H62.206ZM59.1591 174.886H60.9744V180.989C60.9744 181.156 61 181.287 61.0511 181.381C61.1023 181.472 61.1733 181.536 61.2642 181.572C61.358 181.609 61.4659 181.628 61.5881 181.628C61.6733 181.628 61.7585 181.621 61.8438 181.607C61.929 181.589 61.9943 181.577 62.0398 181.568L62.3253 182.919C62.2344 182.947 62.1065 182.98 61.9418 183.017C61.777 183.057 61.5767 183.081 61.3409 183.089C60.9034 183.107 60.5199 183.048 60.1903 182.915C59.8636 182.781 59.6094 182.574 59.4276 182.293C59.2457 182.011 59.1563 181.656 59.1591 181.227V174.886ZM70.9343 176.783C70.9002 176.439 70.7539 176.172 70.4954 175.982C70.2369 175.791 69.886 175.696 69.4428 175.696C69.1417 175.696 68.8874 175.739 68.68 175.824C68.4727 175.906 68.3136 176.021 68.2028 176.169C68.0948 176.317 68.0408 176.484 68.0408 176.672C68.0352 176.828 68.0678 176.964 68.1388 177.081C68.2127 177.197 68.3136 177.298 68.4414 177.384C68.5692 177.466 68.717 177.538 68.8846 177.601C69.0522 177.661 69.2312 177.712 69.4215 177.754L70.2056 177.942C70.5863 178.027 70.9357 178.141 71.2539 178.283C71.5721 178.425 71.8477 178.599 72.0806 178.807C72.3136 179.014 72.494 179.259 72.6218 179.54C72.7525 179.821 72.8192 180.143 72.8221 180.507C72.8192 181.041 72.6829 181.504 72.413 181.896C72.146 182.286 71.7596 182.588 71.2539 182.804C70.7511 183.017 70.1445 183.124 69.4343 183.124C68.7298 183.124 68.1161 183.016 67.5934 182.8C67.0735 182.584 66.6673 182.264 66.3746 181.841C66.0849 181.415 65.9329 180.888 65.9187 180.26H67.7042C67.7241 180.553 67.8079 180.797 67.9556 180.993C68.1062 181.186 68.3065 181.332 68.5565 181.432C68.8093 181.528 69.0948 181.577 69.413 181.577C69.7255 181.577 69.9968 181.531 70.2269 181.44C70.4599 181.349 70.6403 181.223 70.7681 181.061C70.896 180.899 70.9599 180.713 70.9599 180.503C70.9599 180.307 70.9016 180.142 70.7852 180.009C70.6715 179.875 70.5039 179.761 70.2823 179.668C70.0636 179.574 69.7951 179.489 69.4769 179.412L68.5266 179.173C67.7908 178.994 67.2099 178.714 66.7837 178.334C66.3576 177.953 66.146 177.44 66.1488 176.795C66.146 176.267 66.2866 175.805 66.5707 175.411C66.8576 175.016 67.2511 174.707 67.7511 174.486C68.2511 174.264 68.8192 174.153 69.4556 174.153C70.1033 174.153 70.6687 174.264 71.1516 174.486C71.6374 174.707 72.0153 175.016 72.2852 175.411C72.555 175.805 72.6942 176.263 72.7028 176.783H70.9343ZM78.2266 180.213V176.455H80.0419V183H78.299V181.811H78.2308C78.0831 182.195 77.8374 182.503 77.4936 182.736C77.1527 182.969 76.7365 183.085 76.245 183.085C75.8075 183.085 75.4226 182.986 75.0902 182.787C74.7578 182.588 74.4979 182.305 74.3104 181.939C74.1257 181.572 74.032 181.134 74.0291 180.622V176.455H75.8445V180.298C75.8473 180.685 75.951 180.99 76.1555 181.214C76.3601 181.439 76.6342 181.551 76.978 181.551C77.1967 181.551 77.4013 181.501 77.5916 181.402C77.782 181.3 77.9354 181.149 78.0518 180.95C78.1712 180.751 78.2294 180.506 78.2266 180.213ZM81.494 183V176.455H83.2539V177.597H83.3221C83.4414 177.19 83.6417 176.884 83.9229 176.676C84.2042 176.466 84.5281 176.361 84.8945 176.361C84.9854 176.361 85.0835 176.366 85.1886 176.378C85.2937 176.389 85.386 176.405 85.4656 176.425V178.036C85.3803 178.01 85.2624 177.987 85.1119 177.967C84.9613 177.947 84.8235 177.938 84.6985 177.938C84.4315 177.938 84.1928 177.996 83.9826 178.112C83.7752 178.226 83.6104 178.385 83.4883 178.589C83.369 178.794 83.3093 179.03 83.3093 179.297V183H81.494ZM92.7056 176.455L90.4173 183H88.3718L86.0835 176.455H88.0011L89.3604 181.138H89.4286L90.7837 176.455H92.7056ZM96.4066 183.128C95.7333 183.128 95.1538 182.991 94.668 182.719C94.185 182.443 93.8129 182.054 93.5515 181.551C93.2901 181.045 93.1594 180.447 93.1594 179.757C93.1594 179.084 93.2901 178.493 93.5515 177.984C93.8129 177.476 94.1808 177.08 94.6552 176.795C95.1325 176.511 95.6921 176.369 96.3342 176.369C96.766 176.369 97.168 176.439 97.5401 176.578C97.9151 176.714 98.2418 176.92 98.5202 177.196C98.8015 177.472 99.0202 177.818 99.1765 178.236C99.3327 178.651 99.4109 179.136 99.4109 179.693V180.192H93.8839V179.067H97.7021C97.7021 178.805 97.6452 178.574 97.5316 178.372C97.418 178.17 97.2603 178.013 97.0586 177.899C96.8597 177.783 96.6282 177.724 96.364 177.724C96.0884 177.724 95.8441 177.788 95.631 177.916C95.4208 178.041 95.256 178.21 95.1367 178.423C95.0174 178.634 94.9563 178.868 94.9535 179.126V180.196C94.9535 180.52 95.0131 180.8 95.1325 181.036C95.2546 181.271 95.4265 181.453 95.6481 181.581C95.8697 181.709 96.1325 181.773 96.4364 181.773C96.6381 181.773 96.8228 181.744 96.9904 181.688C97.158 181.631 97.3015 181.545 97.4208 181.432C97.5401 181.318 97.631 181.179 97.6935 181.014L99.3725 181.125C99.2873 181.528 99.1126 181.881 98.8484 182.182C98.587 182.48 98.2489 182.713 97.8342 182.881C97.4222 183.045 96.9464 183.128 96.4066 183.128ZM101.54 185.455C101.31 185.455 101.094 185.436 100.893 185.399C100.694 185.365 100.529 185.321 100.398 185.267L100.808 183.912C101.021 183.977 101.212 184.013 101.383 184.018C101.556 184.024 101.705 183.984 101.83 183.899C101.958 183.814 102.062 183.669 102.141 183.464L102.248 183.188L99.8999 176.455H101.809L103.164 181.261H103.232L104.6 176.455H106.522L103.978 183.707C103.856 184.06 103.69 184.366 103.479 184.628C103.272 184.892 103.009 185.095 102.691 185.237C102.373 185.382 101.989 185.455 101.54 185.455Z" fill="white"/>
<path d="M120.311 185.11L124.93 180.492C125.475 179.946 125.475 179.054 124.93 178.508L120.311 173.89" stroke="white" stroke-width="1.5" stroke-miterlimit="10" stroke-linecap="round" stroke-linejoin="round"/>
<g filter="url(#filter0_d_9_5963)">
<path d="M10.9075 6.35L12.0975 5.04V11.43L11.2775 10.72H17.2975V12.83H11.2775L12.0975 12.07V19H9.4775V4.25H18.1875V6.35H10.9075ZM20.395 19V8.38H22.995V19H20.395ZM21.705 6.42C21.2783 6.42 20.905 6.30667 20.585 6.08C20.2717 5.84667 20.115 5.52333 20.115 5.11C20.115 4.70333 20.2717 4.38667 20.585 4.16C20.905 3.93333 21.2783 3.82 21.705 3.82C22.125 3.82 22.4917 3.93333 22.805 4.16C23.1183 4.38667 23.275 4.70333 23.275 5.11C23.275 5.52333 23.1183 5.84667 22.805 6.08C22.4917 6.30667 22.125 6.42 21.705 6.42ZM33.1113 19V14.29C33.1113 14.0233 33.1113 13.79 33.1113 13.59C33.1113 13.3833 33.1113 13.1967 33.1113 13.03C33.1113 12.55 33.0413 12.12 32.9013 11.74C32.7679 11.3533 32.5346 11.05 32.2013 10.83C31.8746 10.61 31.4213 10.5 30.8413 10.5C30.3346 10.5 29.8846 10.6233 29.4913 10.87C29.0979 11.11 28.7879 11.4433 28.5613 11.87C28.3413 12.29 28.2313 12.7767 28.2313 13.33L27.3413 12.78C27.3413 11.8933 27.5413 11.1067 27.9413 10.42C28.3479 9.72667 28.8913 9.18333 29.5713 8.79C30.2513 8.39667 31.0046 8.2 31.8313 8.2C32.6846 8.2 33.4013 8.36667 33.9813 8.7C34.5679 9.03333 35.0079 9.50667 35.3012 10.12C35.6013 10.7333 35.7513 11.4533 35.7513 12.28C35.7513 12.6 35.7513 12.96 35.7513 13.36C35.7513 13.76 35.7513 14.1533 35.7513 14.54V19H33.1113ZM25.6012 19V8.38H28.2313V19H25.6012ZM42.687 19.22C41.8137 19.22 41.0037 19.01 40.257 18.59C39.517 18.1633 38.9237 17.5367 38.477 16.71C38.0304 15.8833 37.807 14.8667 37.807 13.66C37.807 12.4867 38.0337 11.4933 38.487 10.68C38.947 9.86667 39.547 9.25 40.287 8.83C41.0337 8.41 41.8337 8.2 42.687 8.2C43.5204 8.2 44.2904 8.40667 44.997 8.82C45.7037 9.22667 46.2704 9.79333 46.697 10.52C47.1237 11.2467 47.337 12.08 47.337 13.02C47.337 13.0467 47.337 13.0733 47.337 13.1C47.337 13.1267 47.337 13.1533 47.337 13.18L46.037 13.21C46.037 13.19 46.037 13.17 46.037 13.15C46.037 13.1233 46.037 13.1 46.037 13.08C46.037 12.5533 45.9037 12.0933 45.637 11.7C45.377 11.3067 45.037 11 44.617 10.78C44.2037 10.5533 43.7637 10.44 43.297 10.44C42.5304 10.44 41.877 10.7 41.337 11.22C40.797 11.7333 40.527 12.5467 40.527 13.66C40.527 14.7667 40.797 15.5833 41.337 16.11C41.877 16.6367 42.5304 16.9 43.297 16.9C43.7837 16.9 44.2337 16.7833 44.647 16.55C45.0604 16.3167 45.3937 15.9967 45.647 15.59C45.907 15.1767 46.037 14.7033 46.037 14.17L47.337 14.23C47.337 15.1633 47.127 16.01 46.707 16.77C46.2937 17.5233 45.737 18.12 45.037 18.56C44.337 19 43.5537 19.22 42.687 19.22ZM46.037 19V3.37H48.677V19H46.037ZM62.2153 19.22C61.322 19.22 60.4886 19.0533 59.7153 18.72C58.942 18.3867 58.262 17.8967 57.6753 17.25C57.0953 16.5967 56.642 15.8 56.3153 14.86C55.9953 13.9133 55.8353 12.83 55.8353 11.61C55.8353 10.39 55.9953 9.31 56.3153 8.37C56.642 7.43 57.0953 6.64 57.6753 6C58.2553 5.35333 58.932 4.86667 59.7053 4.54C60.4853 4.20667 61.322 4.04 62.2153 4.04C63.122 4.04 63.962 4.20667 64.7353 4.54C65.5153 4.86667 66.1953 5.35333 66.7753 6C67.3553 6.64 67.8053 7.43 68.1253 8.37C68.452 9.31 68.6153 10.39 68.6153 11.61C68.6153 12.83 68.452 13.9133 68.1253 14.86C67.7986 15.8 67.342 16.5967 66.7553 17.25C66.1753 17.8967 65.4986 18.3867 64.7253 18.72C63.952 19.0533 63.1153 19.22 62.2153 19.22ZM62.2153 17.05C62.9086 17.05 63.5353 16.8633 64.0953 16.49C64.6553 16.11 65.0986 15.52 65.4253 14.72C65.7586 13.92 65.9253 12.8833 65.9253 11.61C65.9253 10.33 65.7586 9.29667 65.4253 8.51C65.092 7.71667 64.6453 7.13667 64.0853 6.77C63.5253 6.40333 62.902 6.22 62.2153 6.22C61.542 6.22 60.922 6.40333 60.3553 6.77C59.7953 7.13667 59.3453 7.71667 59.0053 8.51C58.672 9.29667 58.5053 10.33 58.5053 11.61C58.5053 12.89 58.672 13.93 59.0053 14.73C59.3453 15.53 59.7953 16.1167 60.3553 16.49C60.922 16.8633 61.542 17.05 62.2153 17.05ZM74.6361 19.2C73.8828 19.2 73.2561 19.0733 72.7561 18.82C72.2628 18.5667 71.8728 18.2333 71.5861 17.82C71.3061 17.4067 71.1061 16.95 70.9861 16.45C70.8728 15.95 70.8161 15.45 70.8161 14.95C70.8161 14.7033 70.8161 14.4467 70.8161 14.18C70.8161 13.9133 70.8161 13.6433 70.8161 13.37V8.38H73.4561V12.96C73.4561 13.2 73.4561 13.43 73.4561 13.65C73.4561 13.87 73.4561 14.0767 73.4561 14.27C73.4561 14.7433 73.5128 15.1833 73.6261 15.59C73.7394 15.99 73.9461 16.3133 74.2461 16.56C74.5528 16.8067 74.9828 16.93 75.5361 16.93C76.0628 16.93 76.5161 16.7767 76.8961 16.47C77.2761 16.1567 77.5694 15.7633 77.7761 15.29C77.9894 14.8167 78.0961 14.3367 78.0961 13.85L78.9961 14.45C78.9961 15.0967 78.8961 15.7067 78.6961 16.28C78.4961 16.8467 78.2061 17.35 77.8261 17.79C77.4461 18.23 76.9861 18.5767 76.4461 18.83C75.9128 19.0767 75.3094 19.2 74.6361 19.2ZM78.0961 19V8.38H80.7261V19H78.0961ZM88.1375 19.2C87.7575 19.2 87.3708 19.1633 86.9775 19.09C86.5842 19.0167 86.2242 18.88 85.8975 18.68C85.5708 18.48 85.3075 18.1867 85.1075 17.8C84.9075 17.4133 84.8075 16.9033 84.8075 16.27C84.8075 16.1233 84.8075 15.9767 84.8075 15.83C84.8075 15.6767 84.8075 15.52 84.8075 15.36V10.48H82.2975V8.38H83.3175C83.6642 8.38 83.9375 8.36667 84.1375 8.34C84.3375 8.30667 84.4842 8.23333 84.5775 8.12C84.6708 8.00667 84.7308 7.83 84.7575 7.59C84.7908 7.34333 84.8075 7.00333 84.8075 6.57V4.88H87.4475V8.38H90.6075V10.48H87.4475V14.74C87.4475 14.8667 87.4475 14.9933 87.4475 15.12C87.4475 15.24 87.4475 15.3567 87.4475 15.47C87.4475 15.9633 87.5075 16.36 87.6275 16.66C87.7475 16.96 88.0308 17.11 88.4775 17.11C88.6908 17.11 88.8908 17.09 89.0775 17.05C89.2708 17.01 89.4142 16.97 89.5075 16.93V18.99C89.3808 19.0367 89.1975 19.0833 88.9575 19.13C88.7175 19.1767 88.4442 19.2 88.1375 19.2ZM99.2434 19L97.0234 4.25H99.7434L101.443 18.31L101.063 18.29L103.783 4.25H107.103L109.813 18.29L109.433 18.31L111.133 4.25H113.863L111.623 19H107.583L105.303 6.16H105.583L103.303 19H99.2434ZM123.453 19V15.17C123.453 15.01 123.453 14.81 123.453 14.57C123.453 14.33 123.453 14.0867 123.453 13.84C123.453 13.5933 123.453 13.39 123.453 13.23C123.453 12.35 123.28 11.6767 122.933 11.21C122.593 10.7367 122.01 10.5 121.183 10.5C120.63 10.5 120.157 10.61 119.763 10.83C119.377 11.0433 119.08 11.3433 118.873 11.73C118.667 12.1167 118.563 12.5633 118.563 13.07L117.603 12.56C117.603 11.7133 117.793 10.9633 118.173 10.31C118.56 9.65 119.093 9.13333 119.773 8.76C120.453 8.38667 121.233 8.2 122.113 8.2C123.4 8.2 124.383 8.58333 125.063 9.35C125.743 10.11 126.083 11.17 126.083 12.53C126.083 12.8767 126.083 13.29 126.083 13.77C126.083 14.2433 126.083 14.7767 126.083 15.37V19H123.453ZM115.933 19V3.37H118.563V19H115.933ZM132.269 19.22C131.475 19.22 130.779 19.0967 130.179 18.85C129.579 18.5967 129.109 18.2333 128.769 17.76C128.429 17.2867 128.259 16.7167 128.259 16.05C128.259 15.3233 128.455 14.7267 128.849 14.26C129.249 13.7867 129.785 13.4233 130.459 13.17C131.132 12.91 131.879 12.7433 132.699 12.67C133.912 12.55 134.759 12.4367 135.239 12.33C135.725 12.2167 135.969 12.0367 135.969 11.79C135.969 11.7833 135.969 11.78 135.969 11.78C135.969 11.7733 135.969 11.77 135.969 11.77C135.969 11.3033 135.759 10.9433 135.339 10.69C134.919 10.4367 134.325 10.31 133.559 10.31C132.752 10.31 132.132 10.4533 131.699 10.74C131.272 11.02 131.059 11.4667 131.059 12.08H128.459C128.459 11.2467 128.679 10.5433 129.119 9.97C129.565 9.39 130.175 8.95 130.949 8.65C131.722 8.35 132.599 8.2 133.579 8.2C134.492 8.2 135.329 8.33667 136.089 8.61C136.849 8.88333 137.459 9.29667 137.919 9.85C138.379 10.4033 138.609 11.0933 138.609 11.92C138.609 12.06 138.609 12.2 138.609 12.34C138.609 12.48 138.609 12.62 138.609 12.76V16.76C138.609 17.0133 138.615 17.2633 138.629 17.51C138.649 17.75 138.685 17.9667 138.739 18.16C138.805 18.3733 138.885 18.5533 138.979 18.7C139.072 18.8467 139.145 18.9467 139.199 19H136.599C136.552 18.9533 136.485 18.8633 136.399 18.73C136.319 18.59 136.245 18.43 136.179 18.25C136.112 18.05 136.062 17.8367 136.029 17.61C135.995 17.3767 135.979 17.12 135.979 16.84L136.499 17.2C136.299 17.6067 135.992 17.9633 135.579 18.27C135.172 18.57 134.685 18.8033 134.119 18.97C133.552 19.1367 132.935 19.22 132.269 19.22ZM132.909 17.15C133.455 17.15 133.962 17.0567 134.429 16.87C134.895 16.6833 135.272 16.3967 135.559 16.01C135.845 15.6167 135.989 15.1133 135.989 14.5V13.08L136.629 13.8C136.202 13.96 135.689 14.0933 135.089 14.2C134.489 14.3 133.882 14.38 133.269 14.44C132.482 14.5133 131.889 14.65 131.489 14.85C131.095 15.05 130.899 15.3767 130.899 15.83C130.899 16.27 131.065 16.6 131.399 16.82C131.732 17.04 132.235 17.15 132.909 17.15ZM145.677 19.2C145.297 19.2 144.91 19.1633 144.517 19.09C144.123 19.0167 143.763 18.88 143.437 18.68C143.11 18.48 142.847 18.1867 142.647 17.8C142.447 17.4133 142.347 16.9033 142.347 16.27C142.347 16.1233 142.347 15.9767 142.347 15.83C142.347 15.6767 142.347 15.52 142.347 15.36V10.48H139.837V8.38H140.857C141.203 8.38 141.477 8.36667 141.677 8.34C141.877 8.30667 142.023 8.23333 142.117 8.12C142.21 8.00667 142.27 7.83 142.297 7.59C142.33 7.34333 142.347 7.00333 142.347 6.57V4.88H144.987V8.38H148.147V10.48H144.987V14.74C144.987 14.8667 144.987 14.9933 144.987 15.12C144.987 15.24 144.987 15.3567 144.987 15.47C144.987 15.9633 145.047 16.36 145.167 16.66C145.287 16.96 145.57 17.11 146.017 17.11C146.23 17.11 146.43 17.09 146.617 17.05C146.81 17.01 146.953 16.97 147.047 16.93V18.99C146.92 19.0367 146.737 19.0833 146.497 19.13C146.257 19.1767 145.983 19.2 145.677 19.2ZM28.2273 25.25L23.9973 34.9V40H21.3573V34.9L17.1573 25.25H19.9473L23.2173 33.51H22.1573L25.4173 25.25H28.2273ZM33.8095 40.21C32.6895 40.21 31.7029 39.9767 30.8495 39.51C29.9962 39.0367 29.3262 38.3833 28.8395 37.55C28.3595 36.7167 28.1195 35.7633 28.1195 34.69C28.1195 33.61 28.3595 32.66 28.8395 31.84C29.3262 31.0133 29.9962 30.3667 30.8495 29.9C31.7029 29.4333 32.6895 29.2 33.8095 29.2C34.9295 29.2 35.9162 29.4333 36.7695 29.9C37.6229 30.3667 38.2895 31.0133 38.7695 31.84C39.2562 32.66 39.4995 33.61 39.4995 34.69C39.4995 35.7633 39.2562 36.7167 38.7695 37.55C38.2895 38.3833 37.6229 39.0367 36.7695 39.51C35.9162 39.9767 34.9295 40.21 33.8095 40.21ZM33.8095 38.06C34.4162 38.06 34.9462 37.92 35.3995 37.64C35.8529 37.36 36.2062 36.97 36.4595 36.47C36.7129 35.9633 36.8395 35.37 36.8395 34.69C36.8395 34.01 36.7129 33.4233 36.4595 32.93C36.2062 32.43 35.8529 32.0433 35.3995 31.77C34.9462 31.4967 34.4162 31.36 33.8095 31.36C33.2095 31.36 32.6795 31.4967 32.2195 31.77C31.7662 32.0433 31.4129 32.43 31.1595 32.93C30.9062 33.4233 30.7795 34.01 30.7795 34.69C30.7795 35.37 30.9062 35.9633 31.1595 36.47C31.4129 36.97 31.7662 37.36 32.2195 37.64C32.6795 37.92 33.2095 38.06 33.8095 38.06ZM45.4955 40.2C44.7421 40.2 44.1155 40.0733 43.6155 39.82C43.1221 39.5667 42.7321 39.2333 42.4455 38.82C42.1655 38.4067 41.9655 37.95 41.8455 37.45C41.7321 36.95 41.6755 36.45 41.6755 35.95C41.6755 35.7033 41.6755 35.4467 41.6755 35.18C41.6755 34.9133 41.6755 34.6433 41.6755 34.37V29.38H44.3155V33.96C44.3155 34.2 44.3155 34.43 44.3155 34.65C44.3155 34.87 44.3155 35.0767 44.3155 35.27C44.3155 35.7433 44.3721 36.1833 44.4855 36.59C44.5988 36.99 44.8055 37.3133 45.1055 37.56C45.4121 37.8067 45.8421 37.93 46.3955 37.93C46.9221 37.93 47.3755 37.7767 47.7555 37.47C48.1355 37.1567 48.4288 36.7633 48.6355 36.29C48.8488 35.8167 48.9555 35.3367 48.9555 34.85L49.8555 35.45C49.8555 36.0967 49.7555 36.7067 49.5555 37.28C49.3555 37.8467 49.0655 38.35 48.6855 38.79C48.3055 39.23 47.8455 39.5767 47.3055 39.83C46.7721 40.0767 46.1688 40.2 45.4955 40.2ZM48.9555 40V29.38H51.5855V40H48.9555ZM54.1169 40V29.38H56.7469V32.91L56.1369 32.57C56.2035 32.11 56.3269 31.6767 56.5069 31.27C56.6869 30.8567 56.9269 30.4967 57.2269 30.19C57.5269 29.8767 57.8902 29.6333 58.3169 29.46C58.7435 29.2867 59.2302 29.2 59.7769 29.2C60.2102 29.2 60.5502 29.2333 60.7969 29.3C61.0502 29.36 61.2069 29.41 61.2669 29.45L60.7869 31.86C60.7202 31.8133 60.5835 31.7567 60.3769 31.69C60.1769 31.6167 59.9069 31.58 59.5669 31.58C59.0269 31.58 58.5735 31.6733 58.2069 31.86C57.8469 32.04 57.5602 32.2867 57.3469 32.6C57.1335 32.9067 56.9802 33.2467 56.8869 33.62C56.7935 33.9867 56.7469 34.3533 56.7469 34.72V40H54.1169ZM79.5455 34.69C79.5455 35.3167 79.4288 35.9533 79.1955 36.6C78.9621 37.2467 78.6055 37.8467 78.1255 38.4C77.6521 38.9467 77.0521 39.3867 76.3255 39.72C75.5988 40.0533 74.7455 40.22 73.7655 40.22C72.4388 40.22 71.3055 39.8967 70.3655 39.25C69.4321 38.5967 68.7188 37.7 68.2255 36.56C67.7388 35.42 67.4955 34.11 67.4955 32.63C67.4955 31.1433 67.7388 29.83 68.2255 28.69C68.7188 27.55 69.4321 26.6567 70.3655 26.01C71.3055 25.3633 72.4388 25.04 73.7655 25.04C74.8655 25.04 75.8055 25.25 76.5855 25.67C77.3655 26.09 77.9888 26.63 78.4555 27.29C78.9221 27.95 79.2355 28.64 79.3955 29.36C79.4955 29.78 79.5455 30.18 79.5455 30.56H76.8955C76.8955 30.3667 76.8821 30.1667 76.8555 29.96C76.7821 29.4533 76.6121 28.9933 76.3455 28.58C76.0855 28.16 75.7388 27.83 75.3055 27.59C74.8721 27.3433 74.3588 27.22 73.7655 27.22C73.0588 27.22 72.4355 27.4167 71.8955 27.81C71.3621 28.2033 70.9421 28.8 70.6355 29.6C70.3288 30.4 70.1755 31.41 70.1755 32.63C70.1755 33.8367 70.3288 34.8433 70.6355 35.65C70.9421 36.4567 71.3621 37.06 71.8955 37.46C72.4355 37.86 73.0588 38.06 73.7655 38.06C74.2721 38.06 74.7188 37.9667 75.1055 37.78C75.4921 37.5933 75.8188 37.3433 76.0855 37.03C76.3521 36.71 76.5521 36.35 76.6855 35.95C76.8255 35.55 76.8955 35.13 76.8955 34.69H79.5455ZM85.3936 40.22C84.6003 40.22 83.9036 40.0967 83.3036 39.85C82.7036 39.5967 82.2336 39.2333 81.8936 38.76C81.5536 38.2867 81.3836 37.7167 81.3836 37.05C81.3836 36.3233 81.5803 35.7267 81.9736 35.26C82.3736 34.7867 82.9103 34.4233 83.5836 34.17C84.2569 33.91 85.0036 33.7433 85.8236 33.67C87.0369 33.55 87.8836 33.4367 88.3636 33.33C88.8503 33.2167 89.0936 33.0367 89.0936 32.79C89.0936 32.7833 89.0936 32.78 89.0936 32.78C89.0936 32.7733 89.0936 32.77 89.0936 32.77C89.0936 32.3033 88.8836 31.9433 88.4636 31.69C88.0436 31.4367 87.4503 31.31 86.6836 31.31C85.8769 31.31 85.2569 31.4533 84.8236 31.74C84.3969 32.02 84.1836 32.4667 84.1836 33.08H81.5836C81.5836 32.2467 81.8036 31.5433 82.2436 30.97C82.6903 30.39 83.3003 29.95 84.0736 29.65C84.8469 29.35 85.7236 29.2 86.7036 29.2C87.6169 29.2 88.4536 29.3367 89.2136 29.61C89.9736 29.8833 90.5836 30.2967 91.0436 30.85C91.5036 31.4033 91.7336 32.0933 91.7336 32.92C91.7336 33.06 91.7336 33.2 91.7336 33.34C91.7336 33.48 91.7336 33.62 91.7336 33.76V37.76C91.7336 38.0133 91.7403 38.2633 91.7536 38.51C91.7736 38.75 91.8103 38.9667 91.8636 39.16C91.9303 39.3733 92.0103 39.5533 92.1036 39.7C92.1969 39.8467 92.2703 39.9467 92.3236 40H89.7236C89.6769 39.9533 89.6103 39.8633 89.5236 39.73C89.4436 39.59 89.3703 39.43 89.3036 39.25C89.2369 39.05 89.1869 38.8367 89.1536 38.61C89.1203 38.3767 89.1036 38.12 89.1036 37.84L89.6236 38.2C89.4236 38.6067 89.1169 38.9633 88.7036 39.27C88.2969 39.57 87.8103 39.8033 87.2436 39.97C86.6769 40.1367 86.0603 40.22 85.3936 40.22ZM86.0336 38.15C86.5803 38.15 87.0869 38.0567 87.5536 37.87C88.0203 37.6833 88.3969 37.3967 88.6836 37.01C88.9703 36.6167 89.1136 36.1133 89.1136 35.5V34.08L89.7536 34.8C89.3269 34.96 88.8136 35.0933 88.2136 35.2C87.6136 35.3 87.0069 35.38 86.3936 35.44C85.6069 35.5133 85.0136 35.65 84.6136 35.85C84.2203 36.05 84.0236 36.3767 84.0236 36.83C84.0236 37.27 84.1903 37.6 84.5236 37.82C84.8569 38.04 85.3603 38.15 86.0336 38.15ZM94.1755 40V29.38H96.8055V32.91L96.1955 32.57C96.2621 32.11 96.3855 31.6767 96.5655 31.27C96.7455 30.8567 96.9855 30.4967 97.2855 30.19C97.5855 29.8767 97.9488 29.6333 98.3755 29.46C98.8021 29.2867 99.2888 29.2 99.8355 29.2C100.269 29.2 100.609 29.2333 100.855 29.3C101.109 29.36 101.265 29.41 101.325 29.45L100.845 31.86C100.779 31.8133 100.642 31.7567 100.435 31.69C100.235 31.6167 99.9655 31.58 99.6255 31.58C99.0855 31.58 98.6321 31.6733 98.2655 31.86C97.9055 32.04 97.6188 32.2867 97.4055 32.6C97.1921 32.9067 97.0388 33.2467 96.9455 33.62C96.8521 33.9867 96.8055 34.3533 96.8055 34.72V40H94.1755ZM108.964 40.22C108.137 40.22 107.371 40.0067 106.664 39.58C105.964 39.1467 105.397 38.5567 104.964 37.81C104.537 37.0633 104.324 36.2233 104.324 35.29C104.324 35.2633 104.324 35.24 104.324 35.22C104.324 35.1933 104.324 35.17 104.324 35.15L105.624 35.12C105.624 35.1333 105.624 35.15 105.624 35.17C105.624 35.19 105.624 35.2067 105.624 35.22C105.624 35.74 105.754 36.2033 106.014 36.61C106.274 37.01 106.611 37.3267 107.024 37.56C107.444 37.7867 107.891 37.9 108.364 37.9C109.131 37.9 109.784 37.6367 110.324 37.11C110.864 36.5833 111.134 35.7667 111.134 34.66C111.134 33.5467 110.864 32.7333 110.324 32.22C109.791 31.7 109.137 31.44 108.364 31.44C107.897 31.44 107.454 31.5533 107.034 31.78C106.621 32 106.281 32.3067 106.014 32.7C105.754 33.0933 105.624 33.5533 105.624 34.08L104.324 34.02C104.324 33.08 104.537 32.2467 104.964 31.52C105.397 30.7933 105.964 30.2267 106.664 29.82C107.371 29.4067 108.137 29.2 108.964 29.2C109.824 29.2 110.624 29.4133 111.364 29.84C112.111 30.26 112.711 30.8767 113.164 31.69C113.624 32.4967 113.854 33.4867 113.854 34.66C113.854 35.8667 113.631 36.8833 113.184 37.71C112.737 38.5367 112.144 39.1633 111.404 39.59C110.664 40.01 109.851 40.22 108.964 40.22ZM102.984 40V24.37H105.624V40H102.984ZM121.251 40.21C120.131 40.21 119.144 39.9767 118.291 39.51C117.438 39.0367 116.768 38.3833 116.281 37.55C115.801 36.7167 115.561 35.7633 115.561 34.69C115.561 33.61 115.801 32.66 116.281 31.84C116.768 31.0133 117.438 30.3667 118.291 29.9C119.144 29.4333 120.131 29.2 121.251 29.2C122.371 29.2 123.358 29.4333 124.211 29.9C125.064 30.3667 125.731 31.0133 126.211 31.84C126.698 32.66 126.941 33.61 126.941 34.69C126.941 35.7633 126.698 36.7167 126.211 37.55C125.731 38.3833 125.064 39.0367 124.211 39.51C123.358 39.9767 122.371 40.21 121.251 40.21ZM121.251 38.06C121.858 38.06 122.388 37.92 122.841 37.64C123.294 37.36 123.648 36.97 123.901 36.47C124.154 35.9633 124.281 35.37 124.281 34.69C124.281 34.01 124.154 33.4233 123.901 32.93C123.648 32.43 123.294 32.0433 122.841 31.77C122.388 31.4967 121.858 31.36 121.251 31.36C120.651 31.36 120.121 31.4967 119.661 31.77C119.208 32.0433 118.854 32.43 118.601 32.93C118.348 33.4233 118.221 34.01 118.221 34.69C118.221 35.37 118.348 35.9633 118.601 36.47C118.854 36.97 119.208 37.36 119.661 37.64C120.121 37.92 120.651 38.06 121.251 38.06ZM136.627 40V35.29C136.627 35.0233 136.627 34.79 136.627 34.59C136.627 34.3833 136.627 34.1967 136.627 34.03C136.627 33.55 136.557 33.12 136.417 32.74C136.284 32.3533 136.05 32.05 135.717 31.83C135.39 31.61 134.937 31.5 134.357 31.5C133.85 31.5 133.4 31.6233 133.007 31.87C132.614 32.11 132.304 32.4433 132.077 32.87C131.857 33.29 131.747 33.7767 131.747 34.33L130.857 33.78C130.857 32.8933 131.057 32.1067 131.457 31.42C131.864 30.7267 132.407 30.1833 133.087 29.79C133.767 29.3967 134.52 29.2 135.347 29.2C136.2 29.2 136.917 29.3667 137.497 29.7C138.084 30.0333 138.524 30.5067 138.817 31.12C139.117 31.7333 139.267 32.4533 139.267 33.28C139.267 33.6 139.267 33.96 139.267 34.36C139.267 34.76 139.267 35.1533 139.267 35.54V40H136.627ZM129.117 40V29.38H131.747V40H129.117ZM34.1009 48.35L35.2909 47.04V53.43L34.4709 52.72H40.4909V54.83H34.4709L35.2909 54.07V61H32.6709V46.25H41.3809V48.35H34.1009ZM47.999 61.21C46.879 61.21 45.8923 60.9767 45.039 60.51C44.1857 60.0367 43.5157 59.3833 43.029 58.55C42.549 57.7167 42.309 56.7633 42.309 55.69C42.309 54.61 42.549 53.66 43.029 52.84C43.5157 52.0133 44.1857 51.3667 45.039 50.9C45.8923 50.4333 46.879 50.2 47.999 50.2C49.119 50.2 50.1057 50.4333 50.959 50.9C51.8123 51.3667 52.479 52.0133 52.959 52.84C53.4457 53.66 53.689 54.61 53.689 55.69C53.689 56.7633 53.4457 57.7167 52.959 58.55C52.479 59.3833 51.8123 60.0367 50.959 60.51C50.1057 60.9767 49.119 61.21 47.999 61.21ZM47.999 59.06C48.6057 59.06 49.1357 58.92 49.589 58.64C50.0423 58.36 50.3957 57.97 50.649 57.47C50.9023 56.9633 51.029 56.37 51.029 55.69C51.029 55.01 50.9023 54.4233 50.649 53.93C50.3957 53.43 50.0423 53.0433 49.589 52.77C49.1357 52.4967 48.6057 52.36 47.999 52.36C47.399 52.36 46.869 52.4967 46.409 52.77C45.9557 53.0433 45.6023 53.43 45.349 53.93C45.0957 54.4233 44.969 55.01 44.969 55.69C44.969 56.37 45.0957 56.9633 45.349 57.47C45.6023 57.97 45.9557 58.36 46.409 58.64C46.869 58.92 47.399 59.06 47.999 59.06ZM61.0849 61.21C59.9649 61.21 58.9783 60.9767 58.1249 60.51C57.2716 60.0367 56.6016 59.3833 56.1149 58.55C55.6349 57.7167 55.3949 56.7633 55.3949 55.69C55.3949 54.61 55.6349 53.66 56.1149 52.84C56.6016 52.0133 57.2716 51.3667 58.1249 50.9C58.9783 50.4333 59.9649 50.2 61.0849 50.2C62.2049 50.2 63.1916 50.4333 64.0449 50.9C64.8983 51.3667 65.5649 52.0133 66.0449 52.84C66.5316 53.66 66.7749 54.61 66.7749 55.69C66.7749 56.7633 66.5316 57.7167 66.0449 58.55C65.5649 59.3833 64.8983 60.0367 64.0449 60.51C63.1916 60.9767 62.2049 61.21 61.0849 61.21ZM61.0849 59.06C61.6916 59.06 62.2216 58.92 62.6749 58.64C63.1283 58.36 63.4816 57.97 63.7349 57.47C63.9883 56.9633 64.1149 56.37 64.1149 55.69C64.1149 55.01 63.9883 54.4233 63.7349 53.93C63.4816 53.43 63.1283 53.0433 62.6749 52.77C62.2216 52.4967 61.6916 52.36 61.0849 52.36C60.4849 52.36 59.9549 52.4967 59.4949 52.77C59.0416 53.0433 58.6883 53.43 58.4349 53.93C58.1816 54.4233 58.0549 55.01 58.0549 55.69C58.0549 56.37 58.1816 56.9633 58.4349 57.47C58.6883 57.97 59.0416 58.36 59.4949 58.64C59.9549 58.92 60.4849 59.06 61.0849 59.06ZM73.7137 61.2C73.3337 61.2 72.947 61.1633 72.5537 61.09C72.1603 61.0167 71.8003 60.88 71.4737 60.68C71.147 60.48 70.8837 60.1867 70.6837 59.8C70.4837 59.4133 70.3837 58.9033 70.3837 58.27C70.3837 58.1233 70.3837 57.9767 70.3837 57.83C70.3837 57.6767 70.3837 57.52 70.3837 57.36V52.48H67.8737V50.38H68.8937C69.2403 50.38 69.5137 50.3667 69.7137 50.34C69.9137 50.3067 70.0603 50.2333 70.1537 50.12C70.247 50.0067 70.307 49.83 70.3337 49.59C70.367 49.3433 70.3837 49.0033 70.3837 48.57V46.88H73.0237V50.38H76.1837V52.48H73.0237V56.74C73.0237 56.8667 73.0237 56.9933 73.0237 57.12C73.0237 57.24 73.0237 57.3567 73.0237 57.47C73.0237 57.9633 73.0837 58.36 73.2037 58.66C73.3237 58.96 73.607 59.11 74.0537 59.11C74.267 59.11 74.467 59.09 74.6537 59.05C74.847 59.01 74.9903 58.97 75.0837 58.93V60.99C74.957 61.0367 74.7737 61.0833 74.5337 61.13C74.2937 61.1767 74.0203 61.2 73.7137 61.2ZM78.1696 65.37V50.38H80.7996V65.37H78.1696ZM84.1496 61.22C83.3229 61.22 82.5563 61.0067 81.8496 60.58C81.1496 60.1467 80.5829 59.5567 80.1496 58.81C79.7229 58.0633 79.5096 57.2233 79.5096 56.29C79.5096 56.2633 79.5096 56.24 79.5096 56.22C79.5096 56.1933 79.5096 56.17 79.5096 56.15L80.8096 56.12C80.8096 56.1333 80.8096 56.15 80.8096 56.17C80.8096 56.19 80.8096 56.2067 80.8096 56.22C80.8096 56.74 80.9396 57.2033 81.1996 57.61C81.4596 58.01 81.7963 58.3267 82.2096 58.56C82.6296 58.7867 83.0763 58.9 83.5496 58.9C84.3163 58.9 84.9696 58.6367 85.5096 58.11C86.0496 57.5833 86.3196 56.7667 86.3196 55.66C86.3196 54.5467 86.0496 53.7333 85.5096 53.22C84.9763 52.7 84.3229 52.44 83.5496 52.44C83.0829 52.44 82.6396 52.5533 82.2196 52.78C81.8063 53 81.4663 53.3067 81.1996 53.7C80.9396 54.0933 80.8096 54.5533 80.8096 55.08L79.5096 55.02C79.5096 54.08 79.7229 53.2467 80.1496 52.52C80.5829 51.7933 81.1496 51.2267 81.8496 50.82C82.5563 50.4067 83.3229 50.2 84.1496 50.2C85.0096 50.2 85.8096 50.41 86.5496 50.83C87.2963 51.25 87.8963 51.8667 88.3496 52.68C88.8096 53.4933 89.0396 54.4867 89.0396 55.66C89.0396 56.8667 88.8163 57.8833 88.3696 58.71C87.9229 59.5367 87.3296 60.1633 86.5896 60.59C85.8496 61.01 85.0363 61.22 84.1496 61.22ZM91.2165 61V50.38H93.8465V53.91L93.2365 53.57C93.3032 53.11 93.4265 52.6767 93.6065 52.27C93.7865 51.8567 94.0265 51.4967 94.3265 51.19C94.6265 50.8767 94.9898 50.6333 95.4165 50.46C95.8432 50.2867 96.3298 50.2 96.8765 50.2C97.3098 50.2 97.6498 50.2333 97.8965 50.3C98.1498 50.36 98.3065 50.41 98.3665 50.45L97.8865 52.86C97.8198 52.8133 97.6832 52.7567 97.4765 52.69C97.2765 52.6167 97.0065 52.58 96.6665 52.58C96.1265 52.58 95.6732 52.6733 95.3065 52.86C94.9465 53.04 94.6598 53.2867 94.4465 53.6C94.2332 53.9067 94.0798 54.2467 93.9865 54.62C93.8932 54.9867 93.8465 55.3533 93.8465 55.72V61H91.2165ZM99.9751 61V50.38H102.575V61H99.9751ZM101.285 48.42C100.858 48.42 100.485 48.3067 100.165 48.08C99.8517 47.8467 99.6951 47.5233 99.6951 47.11C99.6951 46.7033 99.8517 46.3867 100.165 46.16C100.485 45.9333 100.858 45.82 101.285 45.82C101.705 45.82 102.072 45.9333 102.385 46.16C102.698 46.3867 102.855 46.7033 102.855 47.11C102.855 47.5233 102.698 47.8467 102.385 48.08C102.072 48.3067 101.705 48.42 101.285 48.42ZM112.691 61V56.29C112.691 56.0233 112.691 55.79 112.691 55.59C112.691 55.3833 112.691 55.1967 112.691 55.03C112.691 54.55 112.621 54.12 112.481 53.74C112.348 53.3533 112.115 53.05 111.781 52.83C111.455 52.61 111.001 52.5 110.421 52.5C109.915 52.5 109.465 52.6233 109.071 52.87C108.678 53.11 108.368 53.4433 108.141 53.87C107.921 54.29 107.811 54.7767 107.811 55.33L106.921 54.78C106.921 53.8933 107.121 53.1067 107.521 52.42C107.928 51.7267 108.471 51.1833 109.151 50.79C109.831 50.3967 110.585 50.2 111.411 50.2C112.265 50.2 112.981 50.3667 113.561 50.7C114.148 51.0333 114.588 51.5067 114.881 52.12C115.181 52.7333 115.331 53.4533 115.331 54.28C115.331 54.6 115.331 54.96 115.331 55.36C115.331 55.76 115.331 56.1533 115.331 56.54V61H112.691ZM105.181 61V50.38H107.811V61H105.181ZM122.483 61.2C122.103 61.2 121.717 61.1633 121.323 61.09C120.93 61.0167 120.57 60.88 120.243 60.68C119.917 60.48 119.653 60.1867 119.453 59.8C119.253 59.4133 119.153 58.9033 119.153 58.27C119.153 58.1233 119.153 57.9767 119.153 57.83C119.153 57.6767 119.153 57.52 119.153 57.36V52.48H116.643V50.38H117.663C118.01 50.38 118.283 50.3667 118.483 50.34C118.683 50.3067 118.83 50.2333 118.923 50.12C119.017 50.0067 119.077 49.83 119.103 49.59C119.137 49.3433 119.153 49.0033 119.153 48.57V46.88H121.793V50.38H124.953V52.48H121.793V56.74C121.793 56.8667 121.793 56.9933 121.793 57.12C121.793 57.24 121.793 57.3567 121.793 57.47C121.793 57.9633 121.853 58.36 121.973 58.66C122.093 58.96 122.377 59.11 122.823 59.11C123.037 59.11 123.237 59.09 123.423 59.05C123.617 59.01 123.76 58.97 123.853 58.93V60.99C123.727 61.0367 123.543 61.0833 123.303 61.13C123.063 61.1767 122.79 61.2 122.483 61.2ZM44.0727 82.22C43.026 82.22 42.1127 82.0533 41.3327 81.72C40.5527 81.3867 39.946 80.8867 39.5127 80.22C39.0793 79.5467 38.8627 78.7133 38.8627 77.72C38.8627 77.6067 38.8627 77.5067 38.8627 77.42C38.8627 77.3267 38.8627 77.2233 38.8627 77.11H41.4927C41.4927 77.21 41.4927 77.3033 41.4927 77.39C41.4927 77.47 41.4927 77.5633 41.4927 77.67C41.4927 78.47 41.7093 79.07 42.1427 79.47C42.5827 79.8633 43.2293 80.06 44.0827 80.06C44.9427 80.06 45.5993 79.9167 46.0527 79.63C46.5127 79.3433 46.7427 78.8833 46.7427 78.25C46.7427 77.79 46.586 77.4 46.2727 77.08C45.966 76.7533 45.5427 76.4667 45.0027 76.22C44.4627 75.9733 43.8493 75.7433 43.1627 75.53C42.3893 75.29 41.686 74.98 41.0527 74.6C40.4193 74.22 39.9127 73.74 39.5327 73.16C39.1527 72.58 38.9627 71.8667 38.9627 71.02C38.9627 70.1733 39.1793 69.4533 39.6127 68.86C40.0527 68.2667 40.6527 67.8167 41.4127 67.51C42.1793 67.1967 43.0493 67.04 44.0227 67.04C45.0427 67.04 45.9393 67.2 46.7127 67.52C47.4927 67.84 48.1027 68.3167 48.5427 68.95C48.9827 69.5833 49.2027 70.3733 49.2027 71.32C49.2027 71.4467 49.2027 71.5567 49.2027 71.65C49.2027 71.7433 49.2027 71.85 49.2027 71.97H46.5627C46.5627 71.8833 46.5627 71.7967 46.5627 71.71C46.5627 71.6167 46.5627 71.5267 46.5627 71.44C46.5627 70.68 46.356 70.12 45.9427 69.76C45.5293 69.3933 44.9027 69.21 44.0627 69.21C43.2427 69.21 42.6127 69.3533 42.1727 69.64C41.7327 69.9267 41.5127 70.3833 41.5127 71.01C41.5127 71.4767 41.6627 71.8667 41.9627 72.18C42.2627 72.4933 42.6727 72.7667 43.1927 73C43.7193 73.2267 44.316 73.4567 44.9827 73.69C45.8693 73.9833 46.636 74.3167 47.2827 74.69C47.9293 75.0567 48.4293 75.5167 48.7827 76.07C49.136 76.6167 49.3127 77.3133 49.3127 78.16C49.3127 79.0267 49.0927 79.7633 48.6527 80.37C48.2193 80.97 47.6093 81.43 46.8227 81.75C46.0427 82.0633 45.126 82.22 44.0727 82.22ZM56.7692 82.22C55.6492 82.22 54.6592 81.99 53.7992 81.53C52.9392 81.07 52.2659 80.4233 51.7792 79.59C51.2926 78.7567 51.0492 77.78 51.0492 76.66C51.0492 75.5467 51.2926 74.58 51.7792 73.76C52.2659 72.94 52.9392 72.31 53.7992 71.87C54.6592 71.4233 55.6492 71.2 56.7692 71.2C57.6092 71.2 58.3526 71.3233 58.9992 71.57C59.6459 71.8167 60.1892 72.1467 60.6292 72.56C61.0759 72.9667 61.4159 73.4167 61.6492 73.91C61.8826 74.3967 61.9992 74.8833 61.9992 75.37C61.9992 75.3833 61.9992 75.3967 61.9992 75.41C61.9992 75.4233 61.9992 75.4367 61.9992 75.45H59.3892C59.3892 75.4167 59.3859 75.38 59.3792 75.34C59.3726 75.3 59.3659 75.26 59.3592 75.22C59.3059 74.88 59.1692 74.5733 58.9492 74.3C58.7292 74.02 58.4359 73.7967 58.0692 73.63C57.7026 73.4633 57.2592 73.38 56.7392 73.38C56.1859 73.38 55.6792 73.5033 55.2192 73.75C54.7659 73.99 54.4026 74.3533 54.1292 74.84C53.8626 75.3267 53.7292 75.9333 53.7292 76.66C53.7292 77.38 53.8626 77.9933 54.1292 78.5C54.3959 79 54.7559 79.3833 55.2092 79.65C55.6692 79.91 56.1792 80.04 56.7392 80.04C57.3326 80.04 57.8159 79.95 58.1892 79.77C58.5692 79.5833 58.8559 79.3367 59.0492 79.03C59.2426 78.7167 59.3526 78.3767 59.3792 78.01H61.9992C61.9992 78.5033 61.8859 79 61.6592 79.5C61.4326 79.9933 61.0992 80.4467 60.6592 80.86C60.2192 81.2733 59.6726 81.6033 59.0192 81.85C58.3726 82.0967 57.6226 82.22 56.7692 82.22ZM69.3955 82.21C68.2755 82.21 67.2888 81.9767 66.4355 81.51C65.5821 81.0367 64.9121 80.3833 64.4255 79.55C63.9455 78.7167 63.7055 77.7633 63.7055 76.69C63.7055 75.61 63.9455 74.66 64.4255 73.84C64.9121 73.0133 65.5821 72.3667 66.4355 71.9C67.2888 71.4333 68.2755 71.2 69.3955 71.2C70.5155 71.2 71.5021 71.4333 72.3555 71.9C73.2088 72.3667 73.8755 73.0133 74.3555 73.84C74.8421 74.66 75.0855 75.61 75.0855 76.69C75.0855 77.7633 74.8421 78.7167 74.3555 79.55C73.8755 80.3833 73.2088 81.0367 72.3555 81.51C71.5021 81.9767 70.5155 82.21 69.3955 82.21ZM69.3955 80.06C70.0021 80.06 70.5321 79.92 70.9855 79.64C71.4388 79.36 71.7921 78.97 72.0455 78.47C72.2988 77.9633 72.4255 77.37 72.4255 76.69C72.4255 76.01 72.2988 75.4233 72.0455 74.93C71.7921 74.43 71.4388 74.0433 70.9855 73.77C70.5321 73.4967 70.0021 73.36 69.3955 73.36C68.7955 73.36 68.2655 73.4967 67.8055 73.77C67.3521 74.0433 66.9988 74.43 66.7455 74.93C66.4921 75.4233 66.3655 76.01 66.3655 76.69C66.3655 77.37 66.4921 77.9633 66.7455 78.47C66.9988 78.97 67.3521 79.36 67.8055 79.64C68.2655 79.92 68.7955 80.06 69.3955 80.06ZM77.2614 82V71.38H79.8914V74.91L79.2814 74.57C79.3481 74.11 79.4714 73.6767 79.6514 73.27C79.8314 72.8567 80.0714 72.4967 80.3714 72.19C80.6714 71.8767 81.0347 71.6333 81.4614 71.46C81.8881 71.2867 82.3747 71.2 82.9214 71.2C83.3547 71.2 83.6947 71.2333 83.9414 71.3C84.1947 71.36 84.3514 71.41 84.4114 71.45L83.9314 73.86C83.8647 73.8133 83.7281 73.7567 83.5214 73.69C83.3214 73.6167 83.0514 73.58 82.7114 73.58C82.1714 73.58 81.7181 73.6733 81.3514 73.86C80.9914 74.04 80.7047 74.2867 80.4914 74.6C80.2781 74.9067 80.1247 75.2467 80.0314 75.62C79.9381 75.9867 79.8914 76.3533 79.8914 76.72V82H77.2614ZM86.8547 77.54V75.67H94.2847L93.9847 76.17C93.9847 76.13 93.9847 76.0867 93.9847 76.04C93.9847 75.9867 93.9847 75.9433 93.9847 75.91C93.9847 75.45 93.8814 75.02 93.6747 74.62C93.468 74.2133 93.1547 73.8867 92.7347 73.64C92.3147 73.3867 91.7814 73.26 91.1347 73.26C90.4947 73.26 89.938 73.3967 89.4647 73.67C88.998 73.9367 88.6347 74.3233 88.3747 74.83C88.1214 75.3367 87.9947 75.9433 87.9947 76.65C87.9947 77.3767 88.118 78.0033 88.3647 78.53C88.6114 79.05 88.9714 79.45 89.4447 79.73C89.9247 80.0033 90.508 80.14 91.1947 80.14C91.6614 80.14 92.0647 80.0967 92.4047 80.01C92.7447 79.9233 93.0214 79.8067 93.2347 79.66C93.4547 79.5067 93.618 79.3433 93.7247 79.17C93.838 78.9967 93.9047 78.8233 93.9247 78.65H96.5447C96.5047 79.0967 96.3547 79.5333 96.0947 79.96C95.8414 80.38 95.4847 80.7633 95.0247 81.11C94.5647 81.45 94.0047 81.7233 93.3447 81.93C92.6914 82.13 91.9447 82.23 91.1047 82.23C89.9647 82.23 88.968 81.9967 88.1147 81.53C87.2614 81.0633 86.5947 80.4133 86.1147 79.58C85.6414 78.7467 85.4047 77.7933 85.4047 76.72C85.4047 75.62 85.6447 74.6567 86.1247 73.83C86.6114 73.0033 87.2847 72.36 88.1447 71.9C89.0047 71.4333 89.9914 71.2 91.1047 71.2C92.2514 71.2 93.2414 71.4333 94.0747 71.9C94.9147 72.3667 95.5614 73.0167 96.0147 73.85C96.468 74.6767 96.6947 75.64 96.6947 76.74C96.6947 76.88 96.6914 77.03 96.6847 77.19C96.678 77.35 96.668 77.4667 96.6547 77.54H86.8547ZM103.853 82V67.25H106.453V82H103.853ZM113.368 82.22C112.734 82.22 112.131 82.15 111.558 82.01C110.991 81.87 110.484 81.66 110.038 81.38C109.598 81.1 109.248 80.7533 108.988 80.34C108.734 79.92 108.608 79.4367 108.608 78.89C108.608 78.85 108.608 78.81 108.608 78.77C108.608 78.73 108.608 78.6933 108.608 78.66H111.228C111.228 78.6933 111.228 78.7233 111.228 78.75C111.228 78.77 111.228 78.8 111.228 78.84C111.228 79.2733 111.424 79.6 111.818 79.82C112.218 80.0333 112.761 80.14 113.448 80.14C113.821 80.14 114.171 80.1 114.498 80.02C114.831 79.94 115.098 79.8167 115.298 79.65C115.504 79.4833 115.608 79.27 115.608 79.01C115.608 78.59 115.391 78.29 114.958 78.11C114.531 77.93 113.858 77.7667 112.938 77.62C112.431 77.5333 111.931 77.4167 111.438 77.27C110.944 77.1233 110.494 76.9267 110.088 76.68C109.688 76.4333 109.364 76.1267 109.118 75.76C108.878 75.3933 108.758 74.9467 108.758 74.42C108.758 73.72 108.964 73.1333 109.378 72.66C109.798 72.18 110.358 71.8167 111.058 71.57C111.764 71.3233 112.541 71.2 113.388 71.2C114.201 71.2 114.958 71.3333 115.658 71.6C116.358 71.8667 116.921 72.25 117.348 72.75C117.781 73.25 117.998 73.8533 117.998 74.56C117.998 74.5867 117.998 74.6167 117.998 74.65C117.998 74.6767 117.998 74.7 117.998 74.72H115.398C115.398 74.7 115.398 74.68 115.398 74.66C115.398 74.64 115.398 74.6167 115.398 74.59C115.398 74.2833 115.301 74.0333 115.108 73.84C114.914 73.6467 114.664 73.5033 114.358 73.41C114.051 73.3167 113.728 73.27 113.388 73.27C113.088 73.27 112.778 73.3033 112.458 73.37C112.138 73.43 111.871 73.54 111.658 73.7C111.444 73.8533 111.338 74.07 111.338 74.35C111.338 74.6167 111.448 74.8333 111.668 75C111.888 75.1667 112.194 75.3067 112.588 75.42C112.981 75.5267 113.434 75.6233 113.948 75.71C114.434 75.79 114.924 75.9 115.418 76.04C115.918 76.18 116.374 76.3667 116.788 76.6C117.201 76.8333 117.534 77.14 117.788 77.52C118.048 77.8933 118.178 78.3567 118.178 78.91C118.178 79.4967 118.044 79.9967 117.778 80.41C117.511 80.8233 117.148 81.1667 116.688 81.44C116.234 81.7067 115.721 81.9033 115.148 82.03C114.574 82.1567 113.981 82.22 113.368 82.22Z" fill="white"/>
</g>
<g filter="url(#filter1_d_9_5963)">
<path d="M3.74059 111.794V110.273H10.9082V111.794H8.23633V119H6.41246V111.794H3.74059ZM13.0304 119.124C12.6127 119.124 12.2406 119.051 11.9139 118.906C11.5872 118.759 11.3287 118.541 11.1383 118.254C10.9508 117.964 10.8571 117.604 10.8571 117.172C10.8571 116.808 10.9238 116.503 11.0574 116.256C11.1909 116.009 11.3727 115.81 11.6028 115.659C11.8329 115.509 12.0943 115.395 12.3869 115.318C12.6824 115.241 12.992 115.188 13.3159 115.156C13.6966 115.116 14.0034 115.08 14.2363 115.045C14.4693 115.009 14.6383 114.955 14.7434 114.884C14.8485 114.812 14.9011 114.707 14.9011 114.568V114.543C14.9011 114.273 14.8159 114.064 14.6454 113.916C14.4778 113.768 14.2392 113.695 13.9295 113.695C13.6028 113.695 13.3429 113.767 13.1497 113.912C12.9565 114.054 12.8287 114.233 12.7662 114.449L11.0872 114.312C11.1724 113.915 11.34 113.571 11.59 113.281C11.84 112.989 12.1625 112.764 12.5574 112.608C12.9551 112.449 13.4153 112.369 13.938 112.369C14.3017 112.369 14.6497 112.412 14.9821 112.497C15.3173 112.582 15.6142 112.714 15.8727 112.893C16.1341 113.072 16.34 113.303 16.4906 113.584C16.6412 113.862 16.7164 114.196 16.7164 114.585V119H14.9949V118.092H14.9437C14.8386 118.297 14.698 118.477 14.5218 118.634C14.3457 118.787 14.1341 118.908 13.8869 118.996C13.6397 119.081 13.3542 119.124 13.0304 119.124ZM13.5502 117.871C13.8173 117.871 14.0531 117.818 14.2576 117.713C14.4622 117.605 14.6227 117.46 14.7392 117.278C14.8556 117.097 14.9139 116.891 14.9139 116.661V115.966C14.8571 116.003 14.7789 116.037 14.6795 116.068C14.5829 116.097 14.4735 116.124 14.3514 116.149C14.2292 116.172 14.1071 116.193 13.9849 116.213C13.8627 116.23 13.752 116.246 13.6525 116.26C13.4395 116.291 13.2534 116.341 13.0943 116.409C12.9352 116.477 12.8116 116.57 12.7235 116.686C12.6355 116.8 12.5914 116.942 12.5914 117.112C12.5914 117.359 12.6809 117.548 12.8599 117.679C13.0417 117.807 13.2718 117.871 13.5502 117.871ZM19.7697 117.116L19.774 114.939H20.0382L22.1348 112.455H24.2186L21.4018 115.744H20.9714L19.7697 117.116ZM18.1248 119V110.273H19.9402V119H18.1248ZM22.2157 119L20.2896 116.149L21.4998 114.866L24.3422 119H22.2157ZM27.8226 119.128C27.1493 119.128 26.5698 118.991 26.084 118.719C25.601 118.443 25.2289 118.054 24.9675 117.551C24.7061 117.045 24.5755 116.447 24.5755 115.757C24.5755 115.084 24.7061 114.493 24.9675 113.984C25.2289 113.476 25.5968 113.08 26.0712 112.795C26.5485 112.511 27.1081 112.369 27.7502 112.369C28.182 112.369 28.584 112.439 28.9561 112.578C29.3311 112.714 29.6578 112.92 29.9363 113.196C30.2175 113.472 30.4363 113.818 30.5925 114.236C30.7488 114.651 30.8269 115.136 30.8269 115.693V116.192H25.2999V115.067H29.1181C29.1181 114.805 29.0613 114.574 28.9476 114.372C28.834 114.17 28.6763 114.013 28.4746 113.899C28.2757 113.783 28.0442 113.724 27.78 113.724C27.5044 113.724 27.2601 113.788 27.0471 113.916C26.8368 114.041 26.6721 114.21 26.5527 114.423C26.4334 114.634 26.3723 114.868 26.3695 115.126V116.196C26.3695 116.52 26.4292 116.8 26.5485 117.036C26.6706 117.271 26.8425 117.453 27.0641 117.581C27.2857 117.709 27.5485 117.773 27.8525 117.773C28.0542 117.773 28.2388 117.744 28.4064 117.688C28.574 117.631 28.7175 117.545 28.8368 117.432C28.9561 117.318 29.0471 117.179 29.1096 117.014L30.7885 117.125C30.7033 117.528 30.5286 117.881 30.2644 118.182C30.003 118.48 29.665 118.713 29.2502 118.881C28.8382 119.045 28.3624 119.128 27.8226 119.128ZM36.6554 119.124C36.2377 119.124 35.8656 119.051 35.5389 118.906C35.2122 118.759 34.9537 118.541 34.7633 118.254C34.5758 117.964 34.4821 117.604 34.4821 117.172C34.4821 116.808 34.5488 116.503 34.6824 116.256C34.8159 116.009 34.9977 115.81 35.2278 115.659C35.4579 115.509 35.7193 115.395 36.0119 115.318C36.3074 115.241 36.617 115.188 36.9409 115.156C37.3216 115.116 37.6284 115.08 37.8613 115.045C38.0943 115.009 38.2633 114.955 38.3684 114.884C38.4735 114.812 38.5261 114.707 38.5261 114.568V114.543C38.5261 114.273 38.4409 114.064 38.2704 113.916C38.1028 113.768 37.8642 113.695 37.5545 113.695C37.2278 113.695 36.9679 113.767 36.7747 113.912C36.5815 114.054 36.4537 114.233 36.3912 114.449L34.7122 114.312C34.7974 113.915 34.965 113.571 35.215 113.281C35.465 112.989 35.7875 112.764 36.1824 112.608C36.5801 112.449 37.0403 112.369 37.563 112.369C37.9267 112.369 38.2747 112.412 38.6071 112.497C38.9423 112.582 39.2392 112.714 39.4977 112.893C39.7591 113.072 39.965 113.303 40.1156 113.584C40.2662 113.862 40.3414 114.196 40.3414 114.585V119H38.6199V118.092H38.5687C38.4636 118.297 38.323 118.477 38.1468 118.634C37.9707 118.787 37.7591 118.908 37.5119 118.996C37.2647 119.081 36.9792 119.124 36.6554 119.124ZM37.1752 117.871C37.4423 117.871 37.6781 117.818 37.8826 117.713C38.0872 117.605 38.2477 117.46 38.3642 117.278C38.4806 117.097 38.5389 116.891 38.5389 116.661V115.966C38.4821 116.003 38.4039 116.037 38.3045 116.068C38.2079 116.097 38.0985 116.124 37.9764 116.149C37.8542 116.172 37.7321 116.193 37.6099 116.213C37.4877 116.23 37.377 116.246 37.2775 116.26C37.0645 116.291 36.8784 116.341 36.7193 116.409C36.5602 116.477 36.4366 116.57 36.3485 116.686C36.2605 116.8 36.2164 116.942 36.2164 117.112C36.2164 117.359 36.3059 117.548 36.4849 117.679C36.6667 117.807 36.8968 117.871 37.1752 117.871ZM48.8525 121.455V117.952H48.7971C48.7118 118.134 48.5911 118.314 48.4348 118.493C48.2814 118.669 48.0811 118.815 47.834 118.932C47.5897 119.048 47.2914 119.107 46.9391 119.107C46.4419 119.107 45.9917 118.979 45.5882 118.723C45.1877 118.464 44.8695 118.085 44.6337 117.585C44.4007 117.082 44.2843 116.466 44.2843 115.736C44.2843 114.986 44.405 114.362 44.6465 113.865C44.888 113.365 45.209 112.991 45.6096 112.744C46.013 112.494 46.4547 112.369 46.9348 112.369C47.3013 112.369 47.6067 112.432 47.851 112.557C48.0982 112.679 48.2971 112.832 48.4476 113.017C48.601 113.199 48.7175 113.378 48.7971 113.554H48.8738V112.455H50.6635V121.455H48.8525ZM47.5144 117.662C47.807 117.662 48.0542 117.582 48.2559 117.423C48.4604 117.261 48.6167 117.036 48.7246 116.746C48.8354 116.456 48.8908 116.116 48.8908 115.727C48.8908 115.338 48.8368 115 48.7289 114.713C48.6209 114.426 48.4647 114.205 48.2601 114.048C48.0556 113.892 47.807 113.814 47.5144 113.814C47.2161 113.814 46.9647 113.895 46.7601 114.057C46.5556 114.219 46.4007 114.443 46.2956 114.73C46.1905 115.017 46.138 115.349 46.138 115.727C46.138 116.108 46.1905 116.445 46.2956 116.737C46.4036 117.027 46.5584 117.254 46.7601 117.419C46.9647 117.581 47.2161 117.662 47.5144 117.662ZM56.3184 116.213V112.455H58.1337V119H56.3908V117.811H56.3226C56.1749 118.195 55.9292 118.503 55.5854 118.736C55.2445 118.969 54.8283 119.085 54.3368 119.085C53.8993 119.085 53.5144 118.986 53.182 118.787C52.8496 118.588 52.5897 118.305 52.4022 117.939C52.2175 117.572 52.1238 117.134 52.1209 116.622V112.455H53.9363V116.298C53.9391 116.685 54.0428 116.99 54.2473 117.214C54.4519 117.439 54.726 117.551 55.0698 117.551C55.2885 117.551 55.4931 117.501 55.6834 117.402C55.8738 117.3 56.0272 117.149 56.1436 116.95C56.263 116.751 56.3212 116.506 56.3184 116.213ZM59.5858 119V112.455H61.4011V119H59.5858ZM60.4977 111.611C60.2278 111.611 59.9963 111.521 59.8031 111.342C59.6127 111.161 59.5176 110.943 59.5176 110.69C59.5176 110.44 59.6127 110.226 59.8031 110.047C59.9963 109.865 60.2278 109.774 60.4977 109.774C60.7676 109.774 60.9977 109.865 61.188 110.047C61.3812 110.226 61.4778 110.44 61.4778 110.69C61.4778 110.943 61.3812 111.161 61.188 111.342C60.9977 111.521 60.7676 111.611 60.4977 111.611ZM65.8127 119.128C65.1422 119.128 64.5655 118.986 64.0826 118.702C63.6025 118.415 63.2331 118.017 62.9746 117.509C62.7189 117 62.5911 116.415 62.5911 115.753C62.5911 115.082 62.7203 114.494 62.9789 113.989C63.2402 113.48 63.611 113.084 64.0911 112.8C64.5712 112.513 65.1422 112.369 65.8042 112.369C66.3752 112.369 66.8752 112.473 67.3042 112.68C67.7331 112.888 68.0726 113.179 68.3226 113.554C68.5726 113.929 68.7104 114.369 68.736 114.875H67.0229C66.9746 114.548 66.8468 114.286 66.6394 114.087C66.4348 113.885 66.1664 113.784 65.834 113.784C65.5527 113.784 65.307 113.861 65.0968 114.014C64.8894 114.165 64.7275 114.385 64.611 114.675C64.4945 114.964 64.4363 115.315 64.4363 115.727C64.4363 116.145 64.4931 116.5 64.6067 116.793C64.7232 117.085 64.8865 117.308 65.0968 117.462C65.307 117.615 65.5527 117.692 65.834 117.692C66.0414 117.692 66.2275 117.649 66.3922 117.564C66.5598 117.479 66.6976 117.355 66.8056 117.193C66.9164 117.028 66.9888 116.831 67.0229 116.601H68.736C68.7076 117.101 68.5712 117.541 68.3269 117.922C68.0854 118.3 67.7516 118.595 67.3255 118.808C66.8993 119.021 66.3951 119.128 65.8127 119.128ZM71.5431 117.116L71.5474 114.939H71.8116L73.9082 112.455H75.992L73.1752 115.744H72.7449L71.5431 117.116ZM69.8983 119V110.273H71.7136V119H69.8983ZM73.9892 119L72.063 116.149L73.2733 114.866L76.1156 119H73.9892ZM85.106 114.321L83.4441 114.423C83.4157 114.281 83.3546 114.153 83.2608 114.04C83.1671 113.923 83.0435 113.831 82.8901 113.763C82.7395 113.692 82.5591 113.656 82.3489 113.656C82.0676 113.656 81.8304 113.716 81.6373 113.835C81.4441 113.952 81.3475 114.108 81.3475 114.304C81.3475 114.46 81.41 114.592 81.535 114.7C81.66 114.808 81.8745 114.895 82.1784 114.96L83.3631 115.199C83.9995 115.33 84.4739 115.54 84.7864 115.83C85.0989 116.119 85.2551 116.5 85.2551 116.972C85.2551 117.401 85.1287 117.777 84.8759 118.101C84.6259 118.425 84.2821 118.678 83.8446 118.859C83.41 119.038 82.9086 119.128 82.3404 119.128C81.4739 119.128 80.7836 118.947 80.2694 118.587C79.758 118.223 79.4583 117.729 79.3702 117.104L81.1557 117.01C81.2097 117.274 81.3404 117.476 81.5478 117.615C81.7551 117.751 82.0208 117.82 82.3446 117.82C82.6628 117.82 82.9185 117.759 83.1117 117.636C83.3077 117.511 83.4071 117.351 83.41 117.155C83.4071 116.99 83.3375 116.855 83.2012 116.75C83.0648 116.642 82.8546 116.56 82.5705 116.503L81.437 116.277C80.7978 116.149 80.3219 115.928 80.0094 115.612C79.6998 115.297 79.5449 114.895 79.5449 114.406C79.5449 113.986 79.6586 113.624 79.8858 113.32C80.1159 113.016 80.4384 112.781 80.8532 112.616C81.2708 112.452 81.7594 112.369 82.3191 112.369C83.1458 112.369 83.7963 112.544 84.2708 112.893C84.748 113.243 85.0265 113.719 85.106 114.321ZM90.5957 116.213V112.455H92.411V119H90.6681V117.811H90.6C90.4522 118.195 90.2065 118.503 89.8627 118.736C89.5218 118.969 89.1056 119.085 88.6142 119.085C88.1767 119.085 87.7917 118.986 87.4593 118.787C87.127 118.588 86.867 118.305 86.6795 117.939C86.4949 117.572 86.4011 117.134 86.3983 116.622V112.455H88.2136V116.298C88.2164 116.685 88.3201 116.99 88.5247 117.214C88.7292 117.439 89.0034 117.551 89.3471 117.551C89.5659 117.551 89.7704 117.501 89.9608 117.402C90.1511 117.3 90.3045 117.149 90.421 116.95C90.5403 116.751 90.5985 116.506 90.5957 116.213ZM93.8631 119V112.455H95.623V113.597H95.6912C95.8105 113.19 96.0108 112.884 96.2921 112.676C96.5733 112.466 96.8972 112.361 97.2637 112.361C97.3546 112.361 97.4526 112.366 97.5577 112.378C97.6628 112.389 97.7551 112.405 97.8347 112.425V114.036C97.7495 114.01 97.6316 113.987 97.481 113.967C97.3304 113.947 97.1926 113.938 97.0676 113.938C96.8006 113.938 96.562 113.996 96.3517 114.112C96.1444 114.226 95.9796 114.385 95.8574 114.589C95.7381 114.794 95.6784 115.03 95.6784 115.297V119H93.8631ZM105.075 112.455L102.786 119H100.741L98.4526 112.455H100.37L101.73 117.138H101.798L103.153 112.455H105.075ZM108.776 119.128C108.102 119.128 107.523 118.991 107.037 118.719C106.554 118.443 106.182 118.054 105.921 117.551C105.659 117.045 105.529 116.447 105.529 115.757C105.529 115.084 105.659 114.493 105.921 113.984C106.182 113.476 106.55 113.08 107.024 112.795C107.502 112.511 108.061 112.369 108.703 112.369C109.135 112.369 109.537 112.439 109.909 112.578C110.284 112.714 110.611 112.92 110.889 113.196C111.171 113.472 111.389 113.818 111.546 114.236C111.702 114.651 111.78 115.136 111.78 115.693V116.192H106.253V115.067H110.071C110.071 114.805 110.014 114.574 109.901 114.372C109.787 114.17 109.629 114.013 109.428 113.899C109.229 113.783 108.997 113.724 108.733 113.724C108.458 113.724 108.213 113.788 108 113.916C107.79 114.041 107.625 114.21 107.506 114.423C107.387 114.634 107.325 114.868 107.323 115.126V116.196C107.323 116.52 107.382 116.8 107.502 117.036C107.624 117.271 107.796 117.453 108.017 117.581C108.239 117.709 108.502 117.773 108.806 117.773C109.007 117.773 109.192 117.744 109.36 117.688C109.527 117.631 109.671 117.545 109.79 117.432C109.909 117.318 110 117.179 110.063 117.014L111.742 117.125C111.656 117.528 111.482 117.881 111.218 118.182C110.956 118.48 110.618 118.713 110.203 118.881C109.791 119.045 109.316 119.128 108.776 119.128ZM113.91 121.455C113.68 121.455 113.464 121.436 113.262 121.399C113.063 121.365 112.898 121.321 112.768 121.267L113.177 119.912C113.39 119.977 113.581 120.013 113.752 120.018C113.925 120.024 114.074 119.984 114.199 119.899C114.327 119.814 114.431 119.669 114.51 119.464L114.617 119.188L112.269 112.455H114.178L115.533 117.261H115.601L116.969 112.455H118.891L116.347 119.707C116.225 120.06 116.059 120.366 115.849 120.628C115.641 120.892 115.378 121.095 115.06 121.237C114.742 121.382 114.358 121.455 113.91 121.455ZM126.079 112.455V113.818H122.137V112.455H126.079ZM123.032 110.886H124.847V116.989C124.847 117.156 124.873 117.287 124.924 117.381C124.975 117.472 125.046 117.536 125.137 117.572C125.231 117.609 125.339 117.628 125.461 117.628C125.546 117.628 125.632 117.621 125.717 117.607C125.802 117.589 125.867 117.577 125.913 117.568L126.198 118.919C126.107 118.947 125.98 118.98 125.815 119.017C125.65 119.057 125.45 119.081 125.214 119.089C124.776 119.107 124.393 119.048 124.063 118.915C123.737 118.781 123.482 118.574 123.301 118.293C123.119 118.011 123.029 117.656 123.032 117.227V110.886ZM130.149 119.128C129.487 119.128 128.914 118.987 128.431 118.706C127.951 118.422 127.58 118.027 127.319 117.521C127.058 117.013 126.927 116.423 126.927 115.753C126.927 115.077 127.058 114.486 127.319 113.98C127.58 113.472 127.951 113.077 128.431 112.795C128.914 112.511 129.487 112.369 130.149 112.369C130.811 112.369 131.382 112.511 131.862 112.795C132.345 113.077 132.717 113.472 132.978 113.98C133.24 114.486 133.37 115.077 133.37 115.753C133.37 116.423 133.24 117.013 132.978 117.521C132.717 118.027 132.345 118.422 131.862 118.706C131.382 118.987 130.811 119.128 130.149 119.128ZM130.157 117.722C130.458 117.722 130.71 117.636 130.911 117.466C131.113 117.293 131.265 117.057 131.367 116.759C131.472 116.46 131.525 116.121 131.525 115.74C131.525 115.359 131.472 115.02 131.367 114.722C131.265 114.423 131.113 114.187 130.911 114.014C130.71 113.841 130.458 113.754 130.157 113.754C129.853 113.754 129.597 113.841 129.39 114.014C129.186 114.187 129.031 114.423 128.926 114.722C128.823 115.02 128.772 115.359 128.772 115.74C128.772 116.121 128.823 116.46 128.926 116.759C129.031 117.057 129.186 117.293 129.39 117.466C129.597 117.636 129.853 117.722 130.157 117.722ZM142.774 114.321L141.112 114.423C141.084 114.281 141.023 114.153 140.929 114.04C140.835 113.923 140.711 113.831 140.558 113.763C140.407 113.692 140.227 113.656 140.017 113.656C139.736 113.656 139.498 113.716 139.305 113.835C139.112 113.952 139.015 114.108 139.015 114.304C139.015 114.46 139.078 114.592 139.203 114.7C139.328 114.808 139.542 114.895 139.846 114.96L141.031 115.199C141.667 115.33 142.142 115.54 142.454 115.83C142.767 116.119 142.923 116.5 142.923 116.972C142.923 117.401 142.797 117.777 142.544 118.101C142.294 118.425 141.95 118.678 141.513 118.859C141.078 119.038 140.577 119.128 140.008 119.128C139.142 119.128 138.452 118.947 137.937 118.587C137.426 118.223 137.126 117.729 137.038 117.104L138.824 117.01C138.878 117.274 139.008 117.476 139.216 117.615C139.423 117.751 139.689 117.82 140.013 117.82C140.331 117.82 140.586 117.759 140.78 117.636C140.976 117.511 141.075 117.351 141.078 117.155C141.075 116.99 141.006 116.855 140.869 116.75C140.733 116.642 140.523 116.56 140.238 116.503L139.105 116.277C138.466 116.149 137.99 115.928 137.677 115.612C137.368 115.297 137.213 114.895 137.213 114.406C137.213 113.986 137.327 113.624 137.554 113.32C137.784 113.016 138.106 112.781 138.521 112.616C138.939 112.452 139.427 112.369 139.987 112.369C140.814 112.369 141.464 112.544 141.939 112.893C142.416 113.243 142.694 113.719 142.774 114.321ZM147.049 119.128C146.376 119.128 145.796 118.991 145.311 118.719C144.828 118.443 144.455 118.054 144.194 117.551C143.933 117.045 143.802 116.447 143.802 115.757C143.802 115.084 143.933 114.493 144.194 113.984C144.455 113.476 144.823 113.08 145.298 112.795C145.775 112.511 146.335 112.369 146.977 112.369C147.409 112.369 147.811 112.439 148.183 112.578C148.558 112.714 148.884 112.92 149.163 113.196C149.444 113.472 149.663 113.818 149.819 114.236C149.975 114.651 150.053 115.136 150.053 115.693V116.192H144.526V115.067H148.345C148.345 114.805 148.288 114.574 148.174 114.372C148.061 114.17 147.903 114.013 147.701 113.899C147.502 113.783 147.271 113.724 147.007 113.724C146.731 113.724 146.487 113.788 146.274 113.916C146.063 114.041 145.899 114.21 145.779 114.423C145.66 114.634 145.599 114.868 145.596 115.126V116.196C145.596 116.52 145.656 116.8 145.775 117.036C145.897 117.271 146.069 117.453 146.291 117.581C146.512 117.709 146.775 117.773 147.079 117.773C147.281 117.773 147.465 117.744 147.633 117.688C147.801 117.631 147.944 117.545 148.063 117.432C148.183 117.318 148.274 117.179 148.336 117.014L150.015 117.125C149.93 117.528 149.755 117.881 149.491 118.182C149.23 118.48 148.892 118.713 148.477 118.881C148.065 119.045 147.589 119.128 147.049 119.128ZM154.221 119.128C153.548 119.128 152.968 118.991 152.482 118.719C151.999 118.443 151.627 118.054 151.366 117.551C151.105 117.045 150.974 116.447 150.974 115.757C150.974 115.084 151.105 114.493 151.366 113.984C151.627 113.476 151.995 113.08 152.47 112.795C152.947 112.511 153.507 112.369 154.149 112.369C154.58 112.369 154.982 112.439 155.355 112.578C155.73 112.714 156.056 112.92 156.335 113.196C156.616 113.472 156.835 113.818 156.991 114.236C157.147 114.651 157.225 115.136 157.225 115.693V116.192H151.698V115.067H155.517C155.517 114.805 155.46 114.574 155.346 114.372C155.232 114.17 155.075 114.013 154.873 113.899C154.674 113.783 154.443 113.724 154.178 113.724C153.903 113.724 153.659 113.788 153.445 113.916C153.235 114.041 153.07 114.21 152.951 114.423C152.832 114.634 152.771 114.868 152.768 115.126V116.196C152.768 116.52 152.828 116.8 152.947 117.036C153.069 117.271 153.241 117.453 153.463 117.581C153.684 117.709 153.947 117.773 154.251 117.773C154.453 117.773 154.637 117.744 154.805 117.688C154.972 117.631 155.116 117.545 155.235 117.432C155.355 117.318 155.445 117.179 155.508 117.014L157.187 117.125C157.102 117.528 156.927 117.881 156.663 118.182C156.401 118.48 156.063 118.713 155.649 118.881C155.237 119.045 154.761 119.128 154.221 119.128ZM21.0945 130.216V134H19.2791V125.273H21.0433V128.609H21.12C21.2678 128.223 21.5064 127.92 21.8359 127.702C22.1655 127.48 22.5788 127.369 23.076 127.369C23.5305 127.369 23.9268 127.469 24.2649 127.668C24.6058 127.864 24.87 128.146 25.0575 128.516C25.2479 128.882 25.3416 129.321 25.3388 129.832V134H23.5234V130.156C23.5263 129.753 23.424 129.439 23.2166 129.214C23.0121 128.99 22.7251 128.878 22.3558 128.878C22.1087 128.878 21.8899 128.93 21.6996 129.036C21.5121 129.141 21.3643 129.294 21.2564 129.496C21.1513 129.695 21.0973 129.935 21.0945 130.216ZM29.7248 134.128C29.0629 134.128 28.4904 133.987 28.0075 133.706C27.5273 133.422 27.1566 133.027 26.8952 132.521C26.6339 132.013 26.5032 131.423 26.5032 130.753C26.5032 130.077 26.6339 129.486 26.8952 128.98C27.1566 128.472 27.5273 128.077 28.0075 127.795C28.4904 127.511 29.0629 127.369 29.7248 127.369C30.3867 127.369 30.9577 127.511 31.4379 127.795C31.9208 128.077 32.293 128.472 32.5543 128.98C32.8157 129.486 32.9464 130.077 32.9464 130.753C32.9464 131.423 32.8157 132.013 32.5543 132.521C32.293 133.027 31.9208 133.422 31.4379 133.706C30.9577 133.987 30.3867 134.128 29.7248 134.128ZM29.7333 132.722C30.0344 132.722 30.2859 132.636 30.4876 132.466C30.6893 132.293 30.8413 132.057 30.9435 131.759C31.0487 131.46 31.1012 131.121 31.1012 130.74C31.1012 130.359 31.0487 130.02 30.9435 129.722C30.8413 129.423 30.6893 129.187 30.4876 129.014C30.2859 128.841 30.0344 128.754 29.7333 128.754C29.4293 128.754 29.1737 128.841 28.9663 129.014C28.7617 129.187 28.6069 129.423 28.5018 129.722C28.3995 130.02 28.3484 130.359 28.3484 130.74C28.3484 131.121 28.3995 131.46 28.5018 131.759C28.6069 132.057 28.7617 132.293 28.9663 132.466C29.1737 132.636 29.4293 132.722 29.7333 132.722ZM35.2539 134L33.4727 127.455H35.3093L36.3235 131.852H36.3832L37.44 127.455H39.2425L40.3164 131.827H40.3718L41.369 127.455H43.2013L41.4244 134H39.5025L38.3775 129.884H38.2965L37.1715 134H35.2539ZM48.0678 136.455C47.8377 136.455 47.6218 136.436 47.4201 136.399C47.2212 136.365 47.0565 136.321 46.9258 136.267L47.3349 134.912C47.5479 134.977 47.7397 135.013 47.9102 135.018C48.0835 135.024 48.2326 134.984 48.3576 134.899C48.4854 134.814 48.5891 134.669 48.6687 134.464L48.7752 134.188L46.4272 127.455H48.3363L49.6914 132.261H49.7596L51.1275 127.455H53.0494L50.5053 134.707C50.3832 135.06 50.217 135.366 50.0067 135.628C49.7994 135.892 49.5366 136.095 49.2184 136.237C48.9002 136.382 48.5167 136.455 48.0678 136.455ZM56.7248 134.128C56.0629 134.128 55.4904 133.987 55.0075 133.706C54.5273 133.422 54.1566 133.027 53.8952 132.521C53.6339 132.013 53.5032 131.423 53.5032 130.753C53.5032 130.077 53.6339 129.486 53.8952 128.98C54.1566 128.472 54.5273 128.077 55.0075 127.795C55.4904 127.511 56.0629 127.369 56.7248 127.369C57.3867 127.369 57.9577 127.511 58.4379 127.795C58.9208 128.077 59.293 128.472 59.5543 128.98C59.8157 129.486 59.9464 130.077 59.9464 130.753C59.9464 131.423 59.8157 132.013 59.5543 132.521C59.293 133.027 58.9208 133.422 58.4379 133.706C57.9577 133.987 57.3867 134.128 56.7248 134.128ZM56.7333 132.722C57.0344 132.722 57.2859 132.636 57.4876 132.466C57.6893 132.293 57.8413 132.057 57.9435 131.759C58.0487 131.46 58.1012 131.121 58.1012 130.74C58.1012 130.359 58.0487 130.02 57.9435 129.722C57.8413 129.423 57.6893 129.187 57.4876 129.014C57.2859 128.841 57.0344 128.754 56.7333 128.754C56.4293 128.754 56.1737 128.841 55.9663 129.014C55.7617 129.187 55.6069 129.423 55.5018 129.722C55.3995 130.02 55.3484 130.359 55.3484 130.74C55.3484 131.121 55.3995 131.46 55.5018 131.759C55.6069 132.057 55.7617 132.293 55.9663 132.466C56.1737 132.636 56.4293 132.722 56.7333 132.722ZM65.3242 131.213V127.455H67.1396V134H65.3967V132.811H65.3285C65.1808 133.195 64.935 133.503 64.5913 133.736C64.2504 133.969 63.8342 134.085 63.3427 134.085C62.9052 134.085 62.5202 133.986 62.1879 133.787C61.8555 133.588 61.5955 133.305 61.408 132.939C61.2234 132.572 61.1296 132.134 61.1268 131.622V127.455H62.9421V131.298C62.945 131.685 63.0487 131.99 63.2532 132.214C63.4577 132.439 63.7319 132.551 64.0756 132.551C64.2944 132.551 64.4989 132.501 64.6893 132.402C64.8796 132.3 65.033 132.149 65.1495 131.95C65.2688 131.751 65.3271 131.506 65.3242 131.213ZM74.3263 134.128C73.6559 134.128 73.0792 133.986 72.5962 133.702C72.1161 133.415 71.7468 133.017 71.4883 132.509C71.2326 132 71.1048 131.415 71.1048 130.753C71.1048 130.082 71.234 129.494 71.4925 128.989C71.7539 128.48 72.1246 128.084 72.6048 127.8C73.0849 127.513 73.6559 127.369 74.3178 127.369C74.8888 127.369 75.3888 127.473 75.8178 127.68C76.2468 127.888 76.5863 128.179 76.8363 128.554C77.0863 128.929 77.2241 129.369 77.2496 129.875H75.5366C75.4883 129.548 75.3604 129.286 75.1531 129.087C74.9485 128.885 74.68 128.784 74.3477 128.784C74.0664 128.784 73.8207 128.861 73.6104 129.014C73.4031 129.165 73.2411 129.385 73.1246 129.675C73.0082 129.964 72.9499 130.315 72.9499 130.727C72.9499 131.145 73.0067 131.5 73.1204 131.793C73.2369 132.085 73.4002 132.308 73.6104 132.462C73.8207 132.615 74.0664 132.692 74.3477 132.692C74.555 132.692 74.7411 132.649 74.9059 132.564C75.0735 132.479 75.2113 132.355 75.3192 132.193C75.43 132.028 75.5025 131.831 75.5366 131.601H77.2496C77.2212 132.101 77.0849 132.541 76.8406 132.922C76.5991 133.3 76.2653 133.595 75.8391 133.808C75.413 134.021 74.9087 134.128 74.3263 134.128ZM80.2784 134.124C79.8608 134.124 79.4886 134.051 79.1619 133.906C78.8352 133.759 78.5767 133.541 78.3864 133.254C78.1989 132.964 78.1051 132.604 78.1051 132.172C78.1051 131.808 78.1719 131.503 78.3054 131.256C78.4389 131.009 78.6207 130.81 78.8509 130.659C79.081 130.509 79.3423 130.395 79.6349 130.318C79.9304 130.241 80.2401 130.188 80.5639 130.156C80.9446 130.116 81.2514 130.08 81.4844 130.045C81.7173 130.009 81.8864 129.955 81.9915 129.884C82.0966 129.812 82.1491 129.707 82.1491 129.568V129.543C82.1491 129.273 82.0639 129.064 81.8935 128.916C81.7259 128.768 81.4872 128.695 81.1776 128.695C80.8509 128.695 80.5909 128.767 80.3977 128.912C80.2045 129.054 80.0767 129.233 80.0142 129.449L78.3352 129.312C78.4205 128.915 78.5881 128.571 78.8381 128.281C79.0881 127.989 79.4105 127.764 79.8054 127.608C80.2031 127.449 80.6634 127.369 81.1861 127.369C81.5497 127.369 81.8977 127.412 82.2301 127.497C82.5653 127.582 82.8622 127.714 83.1207 127.893C83.3821 128.072 83.5881 128.303 83.7386 128.584C83.8892 128.862 83.9645 129.196 83.9645 129.585V134H82.2429V133.092H82.1918C82.0866 133.297 81.946 133.477 81.7699 133.634C81.5938 133.787 81.3821 133.908 81.1349 133.996C80.8878 134.081 80.6023 134.124 80.2784 134.124ZM80.7983 132.871C81.0653 132.871 81.3011 132.818 81.5057 132.713C81.7102 132.605 81.8707 132.46 81.9872 132.278C82.1037 132.097 82.1619 131.891 82.1619 131.661V130.966C82.1051 131.003 82.027 131.037 81.9276 131.068C81.831 131.097 81.7216 131.124 81.5994 131.149C81.4773 131.172 81.3551 131.193 81.233 131.213C81.1108 131.23 81 131.246 80.9006 131.26C80.6875 131.291 80.5014 131.341 80.3423 131.409C80.1832 131.477 80.0597 131.57 79.9716 131.686C79.8835 131.8 79.8395 131.942 79.8395 132.112C79.8395 132.359 79.929 132.548 80.108 132.679C80.2898 132.807 80.5199 132.871 80.7983 132.871ZM87.1882 130.216V134H85.3729V127.455H87.103V128.609H87.1797C87.3246 128.229 87.5675 127.928 87.9084 127.706C88.2493 127.482 88.6626 127.369 89.1484 127.369C89.603 127.369 89.9993 127.469 90.3374 127.668C90.6754 127.866 90.9382 128.151 91.1257 128.52C91.3132 128.886 91.407 129.324 91.407 129.832V134H89.5916V130.156C89.5945 129.756 89.4922 129.443 89.2848 129.219C89.0774 128.991 88.7919 128.878 88.4283 128.878C88.1839 128.878 87.968 128.93 87.7805 129.036C87.5959 129.141 87.451 129.294 87.3459 129.496C87.2436 129.695 87.1911 129.935 87.1882 130.216ZM95.6151 134V127.455H97.4304V134H95.6151ZM96.527 126.611C96.2571 126.611 96.0256 126.521 95.8324 126.342C95.642 126.161 95.5469 125.943 95.5469 125.69C95.5469 125.44 95.642 125.226 95.8324 125.047C96.0256 124.865 96.2571 124.774 96.527 124.774C96.7969 124.774 97.027 124.865 97.2173 125.047C97.4105 125.226 97.5071 125.44 97.5071 125.69C97.5071 125.943 97.4105 126.161 97.2173 126.342C97.027 126.521 96.7969 126.611 96.527 126.611ZM98.8846 134V127.455H100.615V128.609H100.691C100.828 128.226 101.055 127.923 101.373 127.702C101.691 127.48 102.072 127.369 102.515 127.369C102.964 127.369 103.346 127.482 103.662 127.706C103.977 127.928 104.187 128.229 104.292 128.609H104.36C104.494 128.234 104.735 127.935 105.085 127.71C105.437 127.483 105.853 127.369 106.333 127.369C106.944 127.369 107.44 127.564 107.821 127.953C108.204 128.339 108.396 128.888 108.396 129.598V134H106.585V129.956C106.585 129.592 106.488 129.32 106.295 129.138C106.102 128.956 105.86 128.865 105.571 128.865C105.241 128.865 104.984 128.97 104.799 129.18C104.615 129.388 104.522 129.662 104.522 130.003V134H102.762V129.918C102.762 129.597 102.67 129.341 102.485 129.151C102.304 128.96 102.064 128.865 101.765 128.865C101.564 128.865 101.382 128.916 101.22 129.018C101.061 129.118 100.934 129.259 100.841 129.44C100.747 129.619 100.7 129.83 100.7 130.071V134H98.8846ZM109.83 136.455V127.455H111.62V128.554H111.701C111.78 128.378 111.895 128.199 112.046 128.017C112.199 127.832 112.398 127.679 112.642 127.557C112.89 127.432 113.196 127.369 113.563 127.369C114.04 127.369 114.48 127.494 114.884 127.744C115.287 127.991 115.61 128.365 115.851 128.865C116.093 129.362 116.213 129.986 116.213 130.736C116.213 131.466 116.096 132.082 115.86 132.585C115.627 133.085 115.309 133.464 114.905 133.723C114.505 133.979 114.056 134.107 113.559 134.107C113.206 134.107 112.907 134.048 112.659 133.932C112.415 133.815 112.215 133.669 112.059 133.493C111.902 133.314 111.783 133.134 111.701 132.952H111.645V136.455H109.83ZM111.607 130.727C111.607 131.116 111.661 131.456 111.769 131.746C111.877 132.036 112.033 132.261 112.238 132.423C112.442 132.582 112.691 132.662 112.983 132.662C113.279 132.662 113.529 132.581 113.733 132.419C113.938 132.254 114.093 132.027 114.198 131.737C114.306 131.445 114.36 131.108 114.36 130.727C114.36 130.349 114.307 130.017 114.202 129.73C114.097 129.443 113.942 129.219 113.738 129.057C113.533 128.895 113.282 128.814 112.983 128.814C112.688 128.814 112.438 128.892 112.233 129.048C112.032 129.205 111.877 129.426 111.769 129.713C111.661 130 111.607 130.338 111.607 130.727ZM117.424 134V127.455H119.184V128.597H119.252C119.371 128.19 119.571 127.884 119.853 127.676C120.134 127.466 120.458 127.361 120.824 127.361C120.915 127.361 121.013 127.366 121.118 127.378C121.223 127.389 121.316 127.405 121.395 127.425V129.036C121.31 129.01 121.192 128.987 121.042 128.967C120.891 128.947 120.753 128.938 120.628 128.938C120.361 128.938 120.123 128.996 119.912 129.112C119.705 129.226 119.54 129.385 119.418 129.589C119.299 129.794 119.239 130.03 119.239 130.297V134H117.424ZM124.987 134.128C124.325 134.128 123.752 133.987 123.269 133.706C122.789 133.422 122.418 133.027 122.157 132.521C121.896 132.013 121.765 131.423 121.765 130.753C121.765 130.077 121.896 129.486 122.157 128.98C122.418 128.472 122.789 128.077 123.269 127.795C123.752 127.511 124.325 127.369 124.987 127.369C125.648 127.369 126.219 127.511 126.7 127.795C127.183 128.077 127.555 128.472 127.816 128.98C128.077 129.486 128.208 130.077 128.208 130.753C128.208 131.423 128.077 132.013 127.816 132.521C127.555 133.027 127.183 133.422 126.7 133.706C126.219 133.987 125.648 134.128 124.987 134.128ZM124.995 132.722C125.296 132.722 125.548 132.636 125.749 132.466C125.951 132.293 126.103 132.057 126.205 131.759C126.31 131.46 126.363 131.121 126.363 130.74C126.363 130.359 126.31 130.02 126.205 129.722C126.103 129.423 125.951 129.187 125.749 129.014C125.548 128.841 125.296 128.754 124.995 128.754C124.691 128.754 124.435 128.841 124.228 129.014C124.023 129.187 123.869 129.423 123.763 129.722C123.661 130.02 123.61 130.359 123.61 130.74C123.61 131.121 123.661 131.46 123.763 131.759C123.869 132.057 124.023 132.293 124.228 132.466C124.435 132.636 124.691 132.722 124.995 132.722ZM135.28 127.455L132.991 134H130.946L128.658 127.455H130.575L131.935 132.138H132.003L133.358 127.455H135.28ZM138.981 134.128C138.308 134.128 137.728 133.991 137.242 133.719C136.759 133.443 136.387 133.054 136.126 132.551C135.864 132.045 135.734 131.447 135.734 130.757C135.734 130.084 135.864 129.493 136.126 128.984C136.387 128.476 136.755 128.08 137.229 127.795C137.707 127.511 138.266 127.369 138.908 127.369C139.34 127.369 139.742 127.439 140.114 127.578C140.489 127.714 140.816 127.92 141.094 128.196C141.376 128.472 141.594 128.818 141.751 129.236C141.907 129.651 141.985 130.136 141.985 130.693V131.192H136.458V130.067H140.276C140.276 129.805 140.219 129.574 140.106 129.372C139.992 129.17 139.835 129.013 139.633 128.899C139.434 128.783 139.202 128.724 138.938 128.724C138.663 128.724 138.418 128.788 138.205 128.916C137.995 129.041 137.83 129.21 137.711 129.423C137.592 129.634 137.531 129.868 137.528 130.126V131.196C137.528 131.52 137.587 131.8 137.707 132.036C137.829 132.271 138.001 132.453 138.222 132.581C138.444 132.709 138.707 132.773 139.011 132.773C139.212 132.773 139.397 132.744 139.565 132.688C139.732 132.631 139.876 132.545 139.995 132.432C140.114 132.318 140.205 132.179 140.268 132.014L141.947 132.125C141.862 132.528 141.687 132.881 141.423 133.182C141.161 133.48 140.823 133.713 140.408 133.881C139.996 134.045 139.521 134.128 138.981 134.128Z" fill="white"/>
</g>
<defs>
<filter id="filter0_d_9_5963" x="6.47749" y="0.370117" width="148.669" height="88.8599" filterUnits="userSpaceOnUse" color-interpolation-filters="sRGB">
<feFlood flood-opacity="0" result="BackgroundImageFix"/>
<feColorMatrix in="SourceAlpha" type="matrix" values="0 0 0 0 0 0 0 0 0 0 0 0 0 0 0 0 0 0 127 0" result="hardAlpha"/>
<feMorphology radius="1" operator="dilate" in="SourceAlpha" result="effect1_dropShadow_9_5963"/>
<feOffset dx="2" dy="2"/>
<feGaussianBlur stdDeviation="2"/>
<feComposite in2="hardAlpha" operator="out"/>
<feColorMatrix type="matrix" values="0 0 0 0 0 0 0 0 0 0 0 0 0 0 0 0 0 0 0.25 0"/>
<feBlend mode="normal" in2="BackgroundImageFix" result="effect1_dropShadow_9_5963"/>
<feBlend mode="normal" in="SourceGraphic" in2="effect1_dropShadow_9_5963" result="shape"/>
</filter>
<filter id="filter1_d_9_5963" x="0.740585" y="106.774" width="163.485" height="36.6807" filterUnits="userSpaceOnUse" color-interpolation-filters="sRGB">
<feFlood flood-opacity="0" result="BackgroundImageFix"/>
<feColorMatrix in="SourceAlpha" type="matrix" values="0 0 0 0 0 0 0 0 0 0 0 0 0 0 0 0 0 0 127 0" result="hardAlpha"/>
<feMorphology radius="1" operator="dilate" in="SourceAlpha" result="effect1_dropShadow_9_5963"/>
<feOffset dx="2" dy="2"/>
<feGaussianBlur stdDeviation="2"/>
<feComposite in2="hardAlpha" operator="out"/>
<feColorMatrix type="matrix" values="0 0 0 0 0 0 0 0 0 0 0 0 0 0 0 0 0 0 0.25 0"/>
<feBlend mode="normal" in2="BackgroundImageFix" result="effect1_dropShadow_9_5963"/>
<feBlend mode="normal" in="SourceGraphic" in2="effect1_dropShadow_9_5963" result="shape"/>
</filter>
</defs>
</svg>
